<?xml version="1.0" standalone="no"?>
<!DOCTYPE svg PUBLIC "-//W3C//DTD SVG 20010904//EN"
 "http://www.w3.org/TR/2001/REC-SVG-20010904/DTD/svg10.dtd">
<svg version="1.0" xmlns="http://www.w3.org/2000/svg"
 width="918.000000pt" height="1280.000000pt" viewBox="0 0 918.000000 1280.000000"
 preserveAspectRatio="xMidYMid meet">

<g transform="translate(0.000000,1280.000000) scale(0.100000,-0.100000)"
fill="#000000" stroke="none">
<path d="M4923 12774 c-380 -30 -812 -143 -1135 -298 -277 -133 -560 -332
-599 -421 -9 -22 -22 -80 -29 -129 -6 -50 -13 -93 -16 -98 -3 -4 -28 -19 -57
-33 -96 -48 -221 -192 -322 -370 -29 -51 -81 -131 -115 -177 -246 -330 -378
-599 -483 -984 -73 -269 -94 -399 -117 -719 -6 -82 -18 -184 -26 -225 -15 -77
-38 -269 -54 -445 -9 -101 5 -302 31 -455 42 -239 148 -510 271 -693 46 -68
172 -219 218 -262 36 -33 153 -255 135 -255 -3 0 -41 33 -85 74 -43 41 -121
104 -172 141 -106 76 -333 190 -466 235 -92 31 -312 84 -412 99 -30 5 -86 22
-125 38 -188 79 -218 86 -380 87 -176 1 -230 -10 -374 -79 -280 -135 -473
-332 -548 -560 -35 -108 -43 -306 -18 -440 11 -57 20 -181 26 -335 9 -271 20
-357 73 -570 67 -265 135 -422 261 -599 249 -348 628 -623 1097 -795 291 -107
659 -144 908 -91 109 23 272 79 375 130 76 37 104 58 180 135 49 50 115 108
145 128 30 20 134 95 230 167 188 141 265 195 275 195 20 0 -11 -125 -54 -220
-27 -58 -65 -148 -85 -200 -21 -52 -50 -126 -66 -165 -32 -81 -72 -211 -95
-310 -15 -63 -22 -76 -83 -140 -162 -170 -354 -470 -557 -870 -114 -225 -133
-249 -218 -283 -306 -121 -737 -342 -912 -467 -210 -150 -420 -353 -541 -521
-63 -89 -184 -327 -217 -429 -30 -94 -61 -242 -77 -377 -15 -115 -1 -265 31
-338 27 -60 82 -116 151 -151 75 -38 296 -94 472 -119 78 -11 184 -27 236 -35
52 -8 199 -24 325 -34 582 -49 1308 -30 1790 45 447 70 561 97 872 205 195 68
223 122 223 438 0 173 -27 433 -69 656 -34 183 -50 275 -66 380 -8 55 -24 145
-35 200 -125 633 -158 760 -249 970 -26 61 -30 82 -31 160 0 137 47 500 72
547 14 27 54 22 76 -9 50 -71 212 -432 309 -688 25 -66 57 -149 70 -185 14
-36 51 -139 82 -230 l58 -165 6 -230 c3 -126 13 -304 21 -395 9 -91 21 -219
27 -285 6 -66 24 -201 38 -300 25 -167 26 -191 18 -324 -17 -249 -1 -298 143
-441 250 -249 760 -533 1195 -665 232 -70 532 -136 760 -167 130 -17 622 -17
810 1 168 16 343 50 444 86 85 31 236 112 330 176 73 50 187 169 239 248 73
113 128 303 117 401 -11 92 -43 223 -80 326 -117 329 -458 732 -850 1005 -82
58 -374 245 -455 292 -25 15 -57 41 -70 59 -44 59 -345 381 -462 494 -303 291
-648 561 -952 745 -179 108 -174 103 -545 594 -42 55 -116 159 -164 230 l-87
130 -29 155 c-16 85 -46 206 -66 268 -41 126 -68 262 -55 276 9 9 15 2 129
-140 44 -56 144 -170 220 -253 111 -119 143 -160 152 -194 34 -129 114 -263
260 -433 248 -289 482 -414 775 -414 254 0 471 70 723 234 266 173 539 433
673 642 258 403 248 883 -28 1324 -153 245 -340 433 -548 552 -53 31 -59 38
-90 109 -18 43 -47 100 -65 128 -17 28 -31 57 -31 64 0 6 41 39 91 72 162 107
370 343 482 545 49 89 133 297 162 400 78 280 103 783 49 1010 -9 39 -19 152
-24 280 -21 536 -89 911 -227 1253 -92 230 -224 459 -373 649 -23 29 -91 106
-152 170 -60 65 -125 141 -145 170 -113 166 -425 486 -603 620 -80 59 -233
154 -317 197 -228 114 -424 173 -813 245 -191 35 -506 48 -737 30z m606 -159
c225 -30 508 -100 676 -168 281 -112 499 -249 718 -452 126 -116 218 -219 320
-357 62 -85 72 -106 30 -66 -16 15 -44 39 -65 55 -20 15 -69 53 -110 84 -198
152 -456 248 -803 300 -114 17 -164 20 -269 14 -322 -16 -488 -72 -764 -257
-115 -77 -157 -92 -180 -62 -12 16 -14 16 -9 2 8 -23 -21 -30 -102 -25 -36 2
-57 1 -49 -4 8 -6 1 -9 -23 -9 -19 0 -40 5 -47 12 -7 7 -12 8 -12 4 0 -5 -8
-2 -17 5 -11 10 -14 10 -9 1 10 -17 -57 24 -79 48 -16 17 -16 20 -2 20 8 0 18
-5 20 -10 3 -6 4 -5 3 2 -2 7 -13 13 -26 12 -13 0 -31 6 -41 15 -31 28 -43 37
-62 44 -9 3 -22 18 -27 32 -5 14 -12 25 -15 25 -4 0 -3 -4 0 -10 8 -13 3 -13
-30 0 -14 5 -23 14 -20 20 4 6 -1 7 -11 3 -10 -4 -15 -2 -11 3 3 6 -8 8 -29 6
-19 -2 -34 0 -34 5 0 4 -49 8 -109 8 -60 0 -107 -3 -104 -7 2 -5 -24 -9 -59
-10 -107 -3 -130 -5 -233 -16 -55 -7 -129 -14 -165 -16 -36 -3 -117 -14 -180
-25 -63 -11 -135 -23 -160 -26 -25 -3 -60 -8 -78 -11 l-32 -6 2 65 c1 37 6 64
11 60 5 -3 4 4 -2 16 -24 44 52 132 217 250 300 214 800 390 1252 440 121 14
581 5 719 -14z m-1023 -805 c188 -92 410 -323 430 -446 17 -107 -130 -564
-269 -839 -57 -112 -125 -192 -190 -223 -70 -34 -148 -51 -211 -47 -33 2 -54
0 -46 -5 9 -5 4 -10 -16 -14 -53 -11 -177 -26 -304 -37 -139 -12 -165 -14
-295 -29 -49 -6 -226 -11 -393 -13 -282 -2 -304 -1 -317 16 -10 14 -14 15 -19
5 -5 -10 -7 -10 -12 0 -3 6 -9 10 -14 7 -18 -11 -57 47 -74 112 -9 38 -17 73
-16 78 2 6 1 12 0 15 -3 5 -10 68 -15 130 -1 19 -6 73 -10 120 -11 135 -13
210 -5 215 3 2 5 27 2 56 -9 112 116 419 227 559 168 213 204 235 458 280 201
35 551 80 637 81 34 0 81 4 106 9 25 5 98 7 163 5 109 -3 123 -5 183 -35z
m2375 -213 c153 -36 306 -187 367 -361 32 -93 29 -208 -9 -276 -83 -151 -325
-123 -509 59 -132 130 -193 297 -155 427 22 78 37 100 88 126 77 39 130 45
218 25z m-1571 -1739 c118 -24 197 -67 271 -145 71 -75 89 -102 142 -209 48
-97 75 -172 107 -304 27 -110 41 -359 28 -495 -9 -94 -62 -360 -93 -470 l-15
-50 20 25 c33 42 126 240 154 328 58 184 70 284 56 467 -15 209 -92 466 -185
615 -18 30 -32 56 -30 59 16 16 263 -222 343 -331 127 -173 233 -462 277 -758
66 -447 32 -762 -120 -1105 -81 -183 -128 -261 -256 -428 -154 -198 -390 -400
-600 -511 -90 -48 -275 -106 -402 -126 -105 -17 -632 -7 -776 14 -272 41 -492
112 -772 251 -244 120 -426 249 -570 403 -97 104 -144 169 -187 260 -37 77
-37 77 -36 207 1 98 5 141 18 175 39 99 40 113 23 196 -33 154 -98 562 -123
769 -33 279 -42 561 -21 673 20 106 58 190 108 238 38 37 43 39 104 39 35 0
66 -3 69 -6 4 -3 -9 -22 -27 -41 -124 -131 -170 -465 -118 -843 41 -288 102
-573 136 -633 l16 -27 -6 35 c-48 271 -75 723 -57 955 6 84 19 185 27 222 30
132 106 233 173 233 30 0 77 -31 111 -72 24 -29 24 -31 5 -41 -96 -53 -122
-161 -130 -547 -10 -435 37 -801 123 -961 29 -55 60 -74 115 -72 54 3 74 24
98 102 40 128 52 570 25 936 -19 270 -20 258 6 215 12 -19 23 -37 25 -39 1 -1
55 36 118 83 290 215 544 370 850 515 81 39 152 71 157 71 6 0 6 -7 0 -18 -35
-65 -66 -195 -77 -319 -6 -73 -5 -83 10 -83 27 0 53 34 60 80 17 104 122 276
225 366 101 88 162 113 306 123 118 9 167 6 295 -21z m2563 -263 c167 -43 247
-139 300 -356 42 -171 59 -276 64 -409 7 -165 2 -182 -25 -93 -27 88 -64 133
-134 163 -81 35 -149 31 -241 -13 -89 -42 -146 -92 -232 -202 -110 -141 -198
-348 -235 -550 -7 -38 -17 -79 -23 -89 -27 -53 -36 -135 -32 -286 6 -179 7
-200 17 -200 4 0 4 -7 1 -17 -4 -10 -2 -14 4 -10 15 10 22 -14 11 -36 -5 -10
-5 -16 0 -15 5 2 25 -14 45 -34 20 -21 42 -38 49 -38 7 0 24 -9 38 -20 21 -17
23 -21 10 -30 -9 -6 -10 -10 -3 -10 7 0 16 6 20 14 7 12 14 12 46 1 20 -7 37
-9 37 -4 0 5 5 9 11 9 19 0 -1 -20 -40 -40 -21 -10 -42 -16 -46 -12 -5 4 -5 2
-2 -5 9 -14 -93 -75 -129 -77 -13 0 -24 -4 -24 -8 0 -15 -33 -8 -45 9 -9 13
-14 13 -20 3 -5 -9 -4 -11 3 -6 7 4 12 2 12 -4 0 -8 -7 -9 -17 -5 -52 22 -104
31 -158 28 -33 -2 -70 -4 -82 -4 -13 -1 -21 -5 -18 -9 3 -4 -2 -11 -11 -14
-10 -4 -13 -2 -9 7 4 6 0 4 -9 -7 -9 -11 -22 -16 -31 -12 -9 3 -13 2 -10 -4 4
-6 -3 -9 -16 -7 -13 2 -28 12 -33 23 -6 10 -13 21 -16 24 -22 21 -40 64 -34
82 3 12 2 18 -3 15 -14 -9 -56 156 -48 185 4 15 3 19 -3 10 -22 -32 -30 284
-10 418 6 41 10 87 10 103 -1 15 4 27 11 27 8 0 8 3 -2 9 -11 7 -11 23 3 102
23 127 87 347 142 488 66 169 213 461 286 571 75 112 203 246 272 284 109 59
243 79 349 51z m-5748 -592 c24 -273 103 -612 207 -898 40 -111 160 -389 204
-477 13 -26 24 -58 24 -70 l0 -23 -18 21 c-80 99 -154 199 -185 251 -178 294
-298 803 -267 1138 5 55 9 108 10 118 0 9 4 17 9 17 5 0 12 -35 16 -77z m1150
1 c47 -51 57 -151 23 -221 -27 -55 -80 -56 -119 -1 -25 34 -38 132 -25 183 16
64 79 84 121 39z m4788 -142 c4 -1 7 -7 7 -13 0 -6 -7 -9 -15 -6 -8 4 -17 1
-21 -6 -4 -7 -4 -9 1 -5 4 4 17 3 28 -3 13 -7 17 -7 13 -1 -3 6 -2 13 4 17 5
3 10 2 10 -2 0 -5 10 -13 22 -18 25 -11 72 -91 62 -106 -3 -5 0 -9 7 -9 8 0 7
-5 -2 -17 -8 -9 -9 -14 -3 -10 15 9 24 -46 11 -69 -7 -12 -6 -15 3 -9 10 6 11
-17 6 -111 -13 -236 -20 -284 -58 -404 -93 -293 -296 -588 -438 -635 -93 -32
-185 -30 -173 2 4 10 2 14 -4 10 -6 -4 -13 -4 -16 0 -2 5 -2 2 -1 -4 2 -7 -1
-13 -6 -13 -13 0 -72 52 -66 58 3 3 -1 10 -10 16 -8 6 -16 23 -18 37 -1 13 -6
30 -10 37 -9 15 1 32 19 32 8 0 17 4 20 10 4 7 -2 7 -19 1 -19 -8 -26 -6 -30
5 -10 26 -7 32 15 27 16 -5 18 -8 7 -15 -9 -7 -4 -8 15 -4 17 4 27 2 27 -5 0
-8 5 -8 15 1 20 17 32 5 15 -15 -8 -10 -9 -15 -1 -15 6 0 11 5 11 10 0 6 6 10
14 10 8 0 18 4 21 10 4 6 -1 7 -12 4 -10 -3 5 10 33 28 70 46 118 90 174 157
72 85 165 281 190 399 15 69 31 103 44 95 6 -4 5 1 -3 10 -7 9 -9 17 -3 17 15
0 24 31 12 45 -6 8 -7 39 -2 86 8 81 6 112 -9 103 -6 -3 -7 5 -3 20 4 17 0 35
-11 52 -21 33 -27 64 -12 64 17 0 39 -38 31 -53 -5 -9 -4 -9 6 0 11 10 10 17
-4 37 -18 29 -35 33 -55 14 -10 -11 -10 -8 -3 13 11 27 -1 60 -15 45 -4 -5 -3
-11 4 -13 7 -2 9 -11 6 -19 -4 -11 -9 -12 -19 -3 -8 6 -11 16 -7 22 4 6 0 8
-9 4 -9 -3 -27 1 -41 8 -14 7 -29 10 -33 7 -4 -4 -4 -1 0 5 4 7 16 18 28 24
14 8 18 8 14 0 -5 -7 -1 -9 8 -5 9 3 13 10 10 15 -5 8 9 13 29 10 4 0 7 3 7 8
0 5 12 11 28 13 25 3 137 3 155 0z m-208 -458 c19 -8 45 -55 45 -83 0 -11 -12
-33 -26 -50 -33 -39 -74 -41 -109 -6 -65 64 4 172 90 139z m-4565 -254 c12 -7
12 -22 2 -103 -18 -147 -30 -161 -56 -69 -22 81 -21 137 4 162 22 22 29 24 50
10z m-2442 -731 c4 -32 -18 -51 -54 -47 -65 8 -45 82 20 76 25 -2 32 -8 34
-29z m1409 -220 c128 -43 214 -162 214 -296 0 -80 -14 -117 -60 -156 -46 -38
-94 -50 -180 -45 -120 7 -225 71 -299 181 -18 28 -26 55 -30 106 -4 62 -2 75
22 115 60 103 196 142 333 95z m669 -320 c115 -103 277 -207 475 -307 150 -75
236 -111 488 -201 24 -9 46 -21 48 -26 1 -6 -48 -37 -110 -69 -173 -92 -290
-161 -430 -253 -71 -47 -130 -83 -132 -81 -2 2 -22 58 -44 123 -120 361 -232
622 -335 780 -85 130 -76 138 40 34z m3504 -246 c0 -5 -7 -30 -15 -57 -8 -27
-15 -72 -15 -100 0 -28 -4 -56 -8 -62 -4 -6 -32 -26 -62 -45 -68 -41 -114 -74
-163 -116 -36 -32 -39 -33 -70 -19 -31 13 -117 63 -266 154 -39 24 -71 47 -71
51 0 5 15 11 33 15 68 12 308 83 452 132 152 52 185 60 185 47z m-963 -216
c12 -6 20 -14 16 -20 -3 -6 -1 -7 5 -3 6 4 19 3 29 -3 10 -5 53 -26 96 -46 76
-37 89 -49 65 -58 -7 -3 1 -3 19 0 24 4 45 -3 90 -29 70 -42 194 -122 245
-158 l37 -27 -42 -56 c-66 -88 -127 -213 -158 -321 -16 -54 -29 -106 -29 -115
0 -9 -4 -21 -10 -27 -5 -5 -10 -35 -11 -67 -1 -31 -5 -57 -8 -57 -3 0 -4 -39
-1 -87 3 -49 2 -90 -3 -91 -4 -2 -3 -10 4 -18 6 -8 9 -14 6 -14 -13 0 -87 86
-93 108 -3 12 -12 22 -18 22 -27 0 -82 77 -66 93 10 9 5 44 -7 44 -9 0 -10 -4
-4 -10 7 -7 7 -15 0 -24 -17 -20 -31 -16 -27 9 2 13 -1 23 -7 23 -22 1 -53 29
-47 43 4 11 1 13 -8 7 -10 -6 -12 -4 -7 9 4 9 3 15 -2 12 -5 -3 -20 3 -32 15
-13 11 -19 18 -12 15 6 -4 15 -2 18 4 4 6 3 10 -2 9 -20 -3 -34 2 -28 11 3 6
0 10 -8 10 -22 0 -41 27 -25 33 9 4 8 6 -3 6 -17 1 -76 70 -71 84 1 4 -2 6 -7
5 -12 -4 -81 89 -73 98 4 4 1 4 -6 0 -7 -4 -19 -2 -27 4 -11 9 -19 9 -27 2 -7
-5 -26 -11 -43 -13 -16 -2 -35 -7 -42 -12 -7 -5 -17 -6 -23 -2 -6 4 -9 2 -8
-4 2 -6 -8 -17 -22 -24 -14 -7 -25 -22 -25 -32 -1 -11 -4 -26 -9 -33 -4 -7 -5
-16 -2 -19 3 -4 6 -1 6 6 0 8 7 11 15 7 13 -4 14 -2 5 14 -12 22 -1 27 19 8
11 -10 13 -10 7 0 -5 9 5 12 37 12 28 0 47 -5 50 -13 12 -31 7 -250 -5 -265
-10 -12 -10 -14 0 -8 20 12 14 -10 -10 -30 -12 -10 -18 -13 -14 -6 4 6 2 12
-3 12 -6 0 -11 -5 -11 -11 0 -6 -6 -9 -14 -6 -8 3 -16 1 -18 -5 -2 -6 -21 -12
-42 -13 -21 -1 -41 -7 -45 -13 -22 -36 -439 -63 -664 -43 -170 15 -412 75
-451 112 -17 16 -18 22 -7 66 7 26 15 55 19 63 3 8 4 18 4 23 -1 4 2 7 7 7 5
0 9 11 9 24 0 36 52 187 63 181 5 -4 6 1 3 9 -6 16 32 107 49 118 7 4 8 10 5
14 -4 3 0 20 8 36 13 26 17 28 32 16 15 -12 16 -11 3 5 -11 14 -11 20 -1 32 7
8 10 15 6 15 -3 0 -1 11 4 24 7 18 5 26 -6 30 -8 3 -13 2 -10 -3 3 -5 -1 -15
-10 -22 -19 -16 -34 2 -28 35 4 20 4 20 -5 1 -5 -11 -5 -27 -1 -35 10 -17 -7
-53 -20 -45 -6 4 -7 -1 -3 -11 4 -12 3 -15 -6 -10 -8 5 -11 3 -9 -6 1 -7 -7
-27 -20 -45 -12 -17 -22 -34 -22 -38 0 -4 -9 -20 -21 -36 -11 -16 -18 -29 -15
-29 8 0 -26 -84 -37 -91 -5 -3 -8 -9 -8 -13 1 -3 -2 -6 -6 -5 -5 0 -7 6 -7 14
1 7 -4 11 -12 8 -18 -7 -18 -19 1 -27 20 -7 19 -26 -2 -43 -10 -8 -12 -12 -5
-8 16 8 16 6 -14 -67 -42 -103 -56 -128 -73 -128 -12 0 -13 -2 -3 -8 16 -11
-18 -44 -39 -39 -8 2 -11 2 -7 0 11 -7 -11 -43 -25 -43 -7 0 -6 4 3 10 10 7
11 10 2 10 -7 0 -17 -11 -21 -24 -11 -28 -90 -88 -108 -82 -6 3 -10 0 -8 -7 3
-7 -20 -30 -50 -52 -30 -22 -54 -43 -55 -47 0 -5 -5 -8 -10 -8 -6 0 -24 -12
-41 -27 -17 -16 -33 -26 -37 -25 -3 2 -9 -3 -14 -12 -5 -9 -14 -13 -20 -10 -7
4 -8 2 -4 -4 4 -7 -2 -16 -16 -21 -13 -5 -30 -16 -37 -25 -7 -9 -19 -16 -25
-16 -6 0 -19 -9 -29 -20 -10 -12 -22 -18 -28 -15 -5 4 -8 1 -7 -5 5 -18 -80
-62 -105 -55 -17 5 -19 4 -7 -4 13 -9 12 -13 -6 -28 -49 -44 -52 -12 -13 127
11 41 21 82 21 90 -1 28 21 109 28 105 4 -3 5 6 3 19 -5 24 35 236 64 336 8
30 22 62 32 71 21 22 333 231 442 297 48 28 95 53 107 55 11 2 27 9 35 15 12
10 16 10 20 0 4 -9 6 -7 6 4 1 10 26 29 69 50 37 18 69 35 72 38 20 21 93 50
113 45 15 -4 18 -3 9 3 -10 7 -6 12 15 20 29 11 76 25 80 24 1 0 24 6 49 14
33 10 102 14 233 14 102 0 251 6 331 12 80 7 166 12 193 12 26 1 47 4 47 8 0
5 13 8 28 8 16 0 55 9 88 20 32 12 67 19 77 16 9 -2 17 0 17 6 0 5 5 6 10 3 6
-4 18 -1 26 6 8 6 17 9 21 6 3 -4 17 3 31 14 27 21 88 24 129 6z m-1740 -1572
c-3 -19 0 -33 6 -32 10 2 17 -9 57 -93 12 -25 36 -65 52 -90 17 -24 31 -49 32
-55 1 -5 14 -22 29 -38 16 -15 26 -31 22 -36 -3 -5 1 -11 7 -14 10 -3 10 -10
-1 -28 -13 -22 -13 -23 2 -10 14 11 21 9 52 -20 19 -18 34 -40 32 -48 -1 -7 4
-16 12 -19 9 -3 11 0 6 8 -6 9 -3 9 15 0 13 -7 19 -17 16 -26 -3 -8 -2 -13 3
-9 5 3 32 -9 60 -26 50 -32 66 -47 35 -35 -9 4 -13 2 -8 -5 3 -6 17 -9 30 -6
13 2 24 0 24 -5 0 -5 4 -7 9 -4 5 3 21 -4 36 -15 20 -16 25 -27 20 -43 -4 -11
-8 -43 -11 -71 -2 -27 -13 -90 -23 -140 -11 -49 -22 -115 -25 -145 -11 -103
-19 -145 -28 -163 -5 -11 -10 -39 -10 -64 0 -24 -2 -42 -5 -40 -2 3 -3 8 -1
11 1 3 -7 13 -19 21 -12 9 -21 21 -19 28 1 6 1 9 -1 5 -10 -17 -31 -6 -98 48
-39 31 -124 99 -190 151 -126 100 -158 130 -150 143 2 4 -5 16 -18 26 l-22 19
20 -24 c18 -23 17 -22 -16 3 -27 22 -35 35 -34 57 1 16 -3 29 -8 29 -5 0 -7
-8 -5 -18 4 -15 -2 -14 -47 8 -29 14 -51 28 -49 31 2 3 -13 5 -32 4 -27 0 -33
2 -28 15 3 8 8 32 11 52 3 21 9 35 14 32 5 -3 9 0 9 5 0 6 -6 11 -12 11 -8 0
-9 3 -3 8 6 4 11 16 12 27 3 51 46 204 55 199 4 -3 5 2 2 10 -3 8 4 36 15 62
12 25 21 54 21 64 0 10 7 23 15 30 12 10 15 10 15 0 0 -8 3 -10 6 -7 4 4 2 12
-4 19 -7 10 -4 27 15 66 13 28 29 52 33 52 5 0 14 10 21 21 8 15 8 19 0 15
-16 -10 -14 1 7 37 15 28 31 46 40 47 1 0 1 -16 -1 -35z m1479 -93 c-3 -5 1
-9 9 -9 8 0 11 5 8 10 -10 17 91 0 141 -23 25 -11 46 -23 46 -26 0 -3 -5 -2
-12 2 -6 4 8 -12 31 -35 24 -24 40 -49 37 -56 -3 -9 0 -12 10 -8 7 3 14 0 14
-5 0 -6 6 -17 13 -24 32 -35 51 -61 40 -54 -9 5 -11 2 -7 -8 3 -9 9 -14 12
-13 4 1 8 -1 10 -5 1 -5 10 -17 20 -28 9 -10 26 -30 38 -43 11 -12 18 -29 16
-37 -3 -8 -1 -12 3 -8 4 4 18 -6 31 -21 26 -32 31 -46 12 -35 -8 4 -10 3 -5
-2 5 -5 13 -9 18 -9 5 0 8 -3 7 -7 -2 -3 11 -18 27 -32 17 -14 26 -26 21 -26
-4 0 8 -15 27 -32 37 -35 270 -339 264 -345 -2 -2 -35 4 -73 14 -86 21 -268
23 -344 4 -134 -34 -222 -111 -297 -263 -28 -57 -59 -125 -68 -151 -15 -41
-21 -48 -41 -45 -13 2 -22 -1 -21 -7 1 -5 7 -9 15 -7 10 3 10 -3 -2 -25 -8
-16 -17 -45 -21 -66 -4 -20 -11 -37 -17 -37 -5 0 -7 -4 -4 -9 4 -5 2 -21 -4
-36 -5 -14 -12 -45 -15 -68 -3 -23 -8 -60 -11 -81 -6 -37 -7 -38 -20 -21 -8
10 -14 29 -14 41 0 13 -5 26 -11 30 -6 3 -9 15 -6 25 3 11 2 17 -2 14 -5 -2
-14 15 -22 38 -7 23 -26 70 -41 104 -15 35 -28 69 -28 77 0 9 -9 32 -20 51
-11 20 -22 44 -23 54 -2 10 -11 30 -20 45 -10 15 -15 31 -12 36 3 6 1 10 -5
10 -6 0 -8 11 -6 23 2 13 0 30 -6 38 -8 11 -9 10 -4 -3 3 -10 3 -18 0 -18 -11
0 -63 132 -58 148 5 13 4 14 -4 3 -7 -10 -14 -1 -27 35 -10 27 -23 55 -28 61
-5 7 -7 20 -3 28 3 9 2 13 -4 10 -12 -8 -33 43 -26 62 3 8 2 11 -4 8 -13 -8
-33 33 -25 53 3 9 3 13 -1 9 -9 -8 -46 61 -39 73 3 5 1 11 -4 14 -5 4 -19 36
-31 72 -23 70 -25 182 -3 234 6 14 12 30 13 35 13 57 110 162 194 211 27 15
81 35 120 45 73 18 251 26 242 11z"/>
<path d="M4856 12233 c-6 -14 -5 -15 5 -6 7 7 10 15 7 18 -3 3 -9 -2 -12 -12z"/>
<path d="M4728 12223 c6 -2 18 -2 25 0 6 3 1 5 -13 5 -14 0 -19 -2 -12 -5z"/>
<path d="M4535 12210 l-40 -7 35 -1 c19 0 46 4 60 8 32 10 2 10 -55 0z"/>
<path d="M4628 12213 c7 -3 16 -2 19 1 4 3 -2 6 -13 5 -11 0 -14 -3 -6 -6z"/>
<path d="M4678 12213 c6 -2 18 -2 25 0 6 3 1 5 -13 5 -14 0 -19 -2 -12 -5z"/>
<path d="M4443 12193 c9 -2 25 -2 35 0 9 3 1 5 -18 5 -19 0 -27 -2 -17 -5z"/>
<path d="M4887 12167 c-3 -8 1 -14 8 -14 7 0 11 6 8 14 -3 7 -6 13 -8 13 -2 0
-5 -6 -8 -13z"/>
<path d="M4180 12160 c-18 -12 -2 -12 25 0 13 6 15 9 5 9 -8 0 -22 -4 -30 -9z"/>
<path d="M4358 12163 c12 -2 30 -2 40 0 9 3 -1 5 -23 4 -22 0 -30 -2 -17 -4z"/>
<path d="M3808 12113 c7 -3 16 -2 19 1 4 3 -2 6 -13 5 -11 0 -14 -3 -6 -6z"/>
<path d="M4920 12091 c0 -6 4 -13 10 -16 6 -3 7 1 4 9 -7 18 -14 21 -14 7z"/>
<path d="M3540 12086 c0 -2 13 -6 29 -8 17 -2 28 -1 25 4 -5 8 -54 12 -54 4z"/>
<path d="M3422 12060 c-14 -23 -15 -30 -4 -30 4 0 12 11 19 25 13 30 3 33 -15
5z"/>
<path d="M3375 12011 c-3 -5 -2 -12 3 -15 5 -3 9 1 9 9 0 17 -3 19 -12 6z"/>
<path d="M4950 11975 c0 -5 5 -17 10 -25 5 -8 10 -10 10 -5 0 6 -5 17 -10 25
-5 8 -10 11 -10 5z"/>
<path d="M3928 11923 c7 -3 16 -2 19 1 4 3 -2 6 -13 5 -11 0 -14 -3 -6 -6z"/>
<path d="M4108 11923 c7 -3 16 -2 19 1 4 3 -2 6 -13 5 -11 0 -14 -3 -6 -6z"/>
<path d="M4508 11923 c7 -3 16 -2 19 1 4 3 -2 6 -13 5 -11 0 -14 -3 -6 -6z"/>
<path d="M4168 11913 c7 -3 16 -2 19 1 4 3 -2 6 -13 5 -11 0 -14 -3 -6 -6z"/>
<path d="M4700 11801 c0 -6 4 -13 10 -16 6 -3 7 1 4 9 -7 18 -14 21 -14 7z"/>
<path d="M5001 11794 c0 -11 3 -14 6 -6 3 7 2 16 -1 19 -3 4 -6 -2 -5 -13z"/>
<path d="M4740 11796 c0 -2 8 -10 18 -17 15 -13 16 -12 3 4 -13 16 -21 21 -21
13z"/>
<path d="M5040 11771 c0 -6 4 -13 10 -16 6 -3 7 1 4 9 -7 18 -14 21 -14 7z"/>
<path d="M4810 11720 c0 -6 7 -10 15 -10 8 0 15 2 15 4 0 2 -7 6 -15 10 -8 3
-15 1 -15 -4z"/>
<path d="M4930 11720 c8 -5 24 -10 34 -10 26 0 18 6 -19 14 -22 5 -26 4 -15
-4z"/>
<path d="M4386 11705 c-41 -133 -182 -416 -281 -564 -104 -157 -184 -201 -420
-227 -71 -8 -166 -19 -210 -24 -133 -16 -582 -23 -654 -11 -72 12 -81 9 -74
-18 4 -15 18 -22 62 -28 84 -12 523 -3 570 12 17 5 21 4 16 -5 -6 -9 -3 -9 13
-1 11 6 41 11 66 11 25 0 109 9 187 20 78 12 148 19 155 16 7 -3 26 1 41 9 16
8 43 15 60 17 17 1 30 5 28 9 -3 3 25 32 60 63 78 69 126 137 219 311 38 72
88 166 112 210 57 104 96 223 85 261 -6 25 -10 19 -35 -61z"/>
<path d="M3906 10888 c3 -4 9 -8 15 -8 5 0 9 4 9 8 0 5 -7 9 -15 9 -8 0 -12
-4 -9 -9z"/>
<path d="M3870 10880 c8 -5 20 -10 25 -10 6 0 3 5 -5 10 -8 5 -19 10 -25 10
-5 0 -3 -5 5 -10z"/>
<path d="M3989 10859 c6 -9 7 -20 3 -24 -4 -5 -1 -5 6 -1 8 5 12 -1 12 -18 0
-32 10 -56 22 -56 6 0 5 6 -2 15 -7 8 -10 21 -6 30 3 8 -6 27 -21 42 -14 16
-20 21 -14 12z"/>
<path d="M4018 10743 c7 -3 16 -2 19 1 4 3 -2 6 -13 5 -11 0 -14 -3 -6 -6z"/>
<path d="M4067 10743 c-4 -3 -7 -11 -7 -17 0 -6 5 -5 12 2 6 6 9 14 7 17 -3 3
-9 2 -12 -2z"/>
<path d="M4060 10691 c0 -6 4 -13 10 -16 6 -3 7 1 4 9 -7 18 -14 21 -14 7z"/>
<path d="M4127 10623 c3 -7 6 -13 8 -13 2 0 5 6 8 13 3 8 -1 14 -8 14 -7 0
-11 -6 -8 -14z"/>
<path d="M4158 10605 c5 -11 7 -27 5 -35 -4 -12 -3 -12 5 -1 8 11 10 11 14 0
3 -8 8 -12 11 -9 3 3 -6 19 -20 35 -14 17 -20 21 -15 10z"/>
<path d="M4126 10553 c-6 -14 -5 -15 5 -6 7 7 10 15 7 18 -3 3 -9 -2 -12 -12z"/>
<path d="M2756 10525 c-9 -26 -7 -32 5 -12 6 10 9 21 6 23 -2 3 -7 -2 -11 -11z"/>
<path d="M4261 10424 c0 -11 3 -14 6 -6 3 7 2 16 -1 19 -3 4 -6 -2 -5 -13z"/>
<path d="M4280 10399 c0 -5 5 -7 10 -4 6 3 10 8 10 11 0 2 -4 4 -10 4 -5 0
-10 -5 -10 -11z"/>
<path d="M4310 10382 c0 -5 14 -21 30 -35 17 -15 30 -24 30 -21 0 4 -13 20
-30 36 -16 15 -30 24 -30 20z"/>
<path d="M4385 10290 c3 -5 8 -10 11 -10 2 0 4 5 4 10 0 6 -5 10 -11 10 -5 0
-7 -4 -4 -10z"/>
<path d="M2810 10266 c0 -2 8 -10 18 -17 15 -13 16 -12 3 4 -13 16 -21 21 -21
13z"/>
<path d="M2805 10230 c3 -5 8 -10 11 -10 2 0 4 5 4 10 0 6 -5 10 -11 10 -5 0
-7 -4 -4 -10z"/>
<path d="M2841 10214 c0 -11 3 -14 6 -6 3 7 2 16 -1 19 -3 4 -6 -2 -5 -13z"/>
<path d="M3558 10193 c6 -2 18 -2 25 0 6 3 1 5 -13 5 -14 0 -19 -2 -12 -5z"/>
<path d="M3378 10173 c7 -3 16 -2 19 1 4 3 -2 6 -13 5 -11 0 -14 -3 -6 -6z"/>
<path d="M5128 9736 c-26 -8 -63 -24 -83 -36 -40 -25 -106 -103 -136 -161 -55
-110 -83 -353 -74 -654 5 -171 22 -423 30 -434 2 -4 8 -43 15 -88 12 -93 58
-235 94 -298 30 -50 81 -97 138 -126 37 -19 54 -21 138 -17 113 6 166 26 236
90 155 142 243 461 236 858 l-3 165 -18 -53 c-21 -61 -40 -85 -88 -107 -76
-36 -158 16 -188 119 -26 91 1 193 62 233 53 35 149 13 192 -44 27 -36 26 -24
-4 104 -51 213 -152 372 -274 429 -68 32 -197 42 -273 20z m311 -1441 c33 -17
101 -104 101 -130 0 -33 -76 -127 -124 -152 -38 -20 -47 -9 -75 84 -34 116
-28 173 24 201 27 15 41 15 74 -3z"/>
<path d="M4914 7841 c35 -22 56 -25 154 -29 120 -5 316 19 348 43 13 9 -44 11
-263 11 l-280 -1 41 -24z"/>
<path d="M3032 7799 c6 -20 64 -38 122 -38 53 -1 126 17 126 31 0 4 -39 8 -87
8 -49 0 -105 3 -127 7 -31 5 -38 3 -34 -8z"/>
<path d="M3338 7672 c-52 -29 -59 -52 -37 -109 l11 -28 11 30 c5 17 23 54 39
83 17 28 28 52 26 52 -1 0 -24 -13 -50 -28z"/>
<path d="M4610 7300 c-16 -31 -75 -56 -190 -82 -98 -21 -126 -23 -422 -23
-174 0 -314 -3 -310 -7 4 -4 59 -14 122 -23 89 -14 160 -16 325 -12 227 5 312
19 431 72 68 30 94 51 94 77 0 25 -36 24 -50 -2z"/>
<path d="M6955 8081 c31 -9 102 -14 94 -7 -2 2 -31 6 -64 9 -39 4 -50 3 -30
-2z"/>
<path d="M7208 8043 c6 -2 18 -2 25 0 6 3 1 5 -13 5 -14 0 -19 -2 -12 -5z"/>
<path d="M7270 8046 c0 -2 13 -6 29 -8 17 -2 28 -1 25 4 -5 8 -54 12 -54 4z"/>
<path d="M6810 7935 c0 -8 4 -15 10 -15 5 0 7 7 4 15 -4 8 -8 15 -10 15 -2 0
-4 -7 -4 -15z"/>
<path d="M6802 7840 c0 -14 2 -19 5 -12 2 6 2 18 0 25 -3 6 -5 1 -5 -13z"/>
<path d="M6815 7680 c-3 -5 -1 -10 4 -10 6 0 11 5 11 10 0 6 -2 10 -4 10 -3 0
-8 -4 -11 -10z"/>
<path d="M6807 7653 c-4 -3 -7 -13 -7 -22 1 -13 3 -13 11 2 11 19 8 33 -4 20z"/>
<path d="M6831 7594 c0 -11 3 -14 6 -6 3 7 2 16 -1 19 -3 4 -6 -2 -5 -13z"/>
<path d="M7052 7271 c-11 -7 -11 -9 0 -14 9 -3 15 1 15 9 0 8 -1 14 -1 14 -1
0 -7 -4 -14 -9z"/>
<path d="M7250 7260 c-8 -5 -10 -10 -5 -10 6 0 17 5 25 10 8 5 11 10 5 10 -5
0 -17 -5 -25 -10z"/>
<path d="M7875 8820 c-3 -6 1 -7 9 -4 18 7 21 14 7 14 -6 0 -13 -4 -16 -10z"/>
<path d="M7978 8823 c7 -3 16 -2 19 1 4 3 -2 6 -13 5 -11 0 -14 -3 -6 -6z"/>
<path d="M7820 8796 c0 -2 7 -6 15 -10 8 -3 15 -1 15 4 0 6 -7 10 -15 10 -8 0
-15 -2 -15 -4z"/>
<path d="M8124 8789 c-3 -6 -2 -15 3 -20 5 -5 9 -1 9 11 0 23 -2 24 -12 9z"/>
<path d="M8181 8514 c0 -11 3 -14 6 -6 3 7 2 16 -1 19 -3 4 -6 -2 -5 -13z"/>
<path d="M7980 8340 c-8 -5 -10 -10 -5 -10 6 0 17 5 25 10 8 5 11 10 5 10 -5
0 -17 -5 -25 -10z"/>
<path d="M8115 8300 c3 -5 11 -10 16 -10 6 0 7 5 4 10 -3 6 -11 10 -16 10 -6
0 -7 -4 -4 -10z"/>
<path d="M7545 7600 c3 -5 8 -10 11 -10 2 0 4 5 4 10 0 6 -5 10 -11 10 -5 0
-7 -4 -4 -10z"/>
<path d="M7528 7553 c7 -3 16 -2 19 1 4 3 -2 6 -13 5 -11 0 -14 -3 -6 -6z"/>
<path d="M7590 7550 c-9 -6 -10 -10 -3 -10 6 0 15 5 18 10 8 12 4 12 -15 0z"/>
<path d="M7631 7507 c2 -1 13 -9 24 -17 19 -14 19 -14 6 3 -7 9 -18 17 -24 17
-6 0 -8 -1 -6 -3z"/>
<path d="M7565 7450 c-3 -6 1 -7 9 -4 18 7 21 14 7 14 -6 0 -13 -4 -16 -10z"/>
<path d="M5354 6384 c-18 -14 -18 -15 4 -4 12 6 22 13 22 15 0 8 -5 6 -26 -11z"/>
<path d="M5298 6363 c6 -2 18 -2 25 0 6 3 1 5 -13 5 -14 0 -19 -2 -12 -5z"/>
<path d="M5620 6326 c0 -2 7 -7 16 -10 8 -3 12 -2 9 4 -6 10 -25 14 -25 6z"/>
<path d="M4960 6310 c-23 -7 -23 -8 -3 -9 12 -1 25 4 28 9 3 6 5 10 3 9 -2 -1
-14 -5 -28 -9z"/>
<path d="M5584 6259 l-19 -22 25 14 c14 7 32 12 40 11 13 -3 13 -2 0 7 -21 15
-24 14 -46 -10z"/>
<path d="M4210 6259 c0 -5 5 -7 10 -4 6 3 10 8 10 11 0 2 -4 4 -10 4 -5 0 -10
-5 -10 -11z"/>
<path d="M5455 6200 c-3 -6 1 -7 9 -4 18 7 21 14 7 14 -6 0 -13 -4 -16 -10z"/>
<path d="M4000 6179 c0 -5 -5 -7 -12 -3 -7 4 -8 3 -4 -4 4 -6 13 -9 21 -6 8 4
12 10 9 15 -7 12 -14 11 -14 -2z"/>
<path d="M5105 6090 c-27 -7 -28 -8 -5 -8 14 0 34 3 45 8 25 11 2 11 -40 0z"/>
<path d="M3855 6081 c-6 -11 13 -26 22 -17 4 3 1 6 -6 6 -7 0 -9 5 -6 10 3 6
4 10 1 10 -3 0 -7 -4 -11 -9z"/>
<path d="M3815 6060 c-7 -12 19 -24 37 -17 8 3 6 6 -5 6 -10 1 -15 6 -12 11 3
6 2 10 -4 10 -5 0 -13 -5 -16 -10z"/>
<path d="M4808 6039 c13 -5 46 -5 75 0 l52 8 -74 0 c-52 0 -68 -3 -53 -8z"/>
<path d="M4353 5963 c-7 -15 -11 -28 -9 -31 6 -6 28 38 24 48 -2 5 -9 -3 -15
-17z"/>
<path d="M3874 5918 c-16 -18 -19 -25 -8 -15 12 10 24 15 26 10 3 -4 3 -3 2 4
-2 6 2 14 9 16 7 2 9 7 6 11 -3 3 -19 -9 -35 -26z"/>
<path d="M5377 5919 c7 -7 15 -10 18 -7 3 3 -2 9 -12 12 -14 6 -15 5 -6 -5z"/>
<path d="M5195 5890 c-3 -5 -2 -10 4 -10 5 0 13 5 16 10 3 6 2 10 -4 10 -5 0
-13 -4 -16 -10z"/>
<path d="M5420 5881 c0 -10 19 -25 25 -20 1 2 -3 10 -11 17 -8 7 -14 8 -14 3z"/>
<path d="M3826 5872 c-2 -4 4 -8 14 -8 10 0 16 4 14 8 -3 4 -9 8 -14 8 -5 0
-11 -4 -14 -8z"/>
<path d="M5270 5870 c-8 -5 -10 -10 -5 -10 6 0 17 5 25 10 8 5 11 10 5 10 -5
0 -17 -5 -25 -10z"/>
<path d="M5410 5839 c0 -5 5 -7 10 -4 6 3 10 8 10 11 0 2 -4 4 -10 4 -5 0 -10
-5 -10 -11z"/>
<path d="M4250 5825 c0 -5 5 -17 10 -25 5 -8 10 -10 10 -5 0 6 -5 17 -10 25
-5 8 -10 11 -10 5z"/>
<path d="M5520 5796 c0 -2 8 -10 18 -17 15 -13 16 -12 3 4 -13 16 -21 21 -21
13z"/>
<path d="M5568 5730 c5 -35 8 -37 15 -10 3 10 -1 24 -7 29 -10 8 -11 3 -8 -19z"/>
<path d="M3686 5735 c-11 -8 -17 -17 -14 -20 2 -3 13 4 23 15 21 23 18 25 -9
5z"/>
<path d="M3631 5686 c-9 -10 -8 -15 3 -19 10 -4 13 -1 10 8 -3 7 2 15 13 18
14 4 15 5 2 6 -9 0 -22 -5 -28 -13z"/>
<path d="M3830 5655 c-7 -9 -11 -17 -9 -20 3 -2 10 5 17 15 14 24 10 26 -8 5z"/>
<path d="M3564 5598 l-19 -23 23 19 c21 18 27 26 19 26 -2 0 -12 -10 -23 -22z"/>
<path d="M3516 5583 c-6 -14 -5 -15 5 -6 7 7 10 15 7 18 -3 3 -9 -2 -12 -12z"/>
<path d="M5760 5590 c0 -5 6 -10 14 -10 8 0 17 -8 19 -17 4 -17 5 -17 6 -1 0
10 -8 22 -19 28 -14 7 -20 7 -20 0z"/>
<path d="M4211 5564 c0 -11 3 -14 6 -6 3 7 2 16 -1 19 -3 4 -6 -2 -5 -13z"/>
<path d="M3758 5543 c7 -3 16 -2 19 1 4 3 -2 6 -13 5 -11 0 -14 -3 -6 -6z"/>
<path d="M3470 5515 c0 -14 5 -25 10 -25 6 0 10 11 10 25 0 14 -4 25 -10 25
-5 0 -10 -11 -10 -25z"/>
<path d="M4195 5529 c-4 -6 -5 -12 -2 -15 2 -3 7 2 10 11 7 17 1 20 -8 4z"/>
<path d="M5036 5478 c9 -57 16 -63 13 -10 -2 24 -7 46 -11 48 -5 3 -5 -14 -2
-38z"/>
<path d="M3407 5499 c7 -7 15 -10 18 -7 3 3 -2 9 -12 12 -14 6 -15 5 -6 -5z"/>
<path d="M4181 5474 c0 -11 3 -14 6 -6 3 7 2 16 -1 19 -3 4 -6 -2 -5 -13z"/>
<path d="M5140 5475 c0 -8 4 -15 10 -15 5 0 7 7 4 15 -4 8 -8 15 -10 15 -2 0
-4 -7 -4 -15z"/>
<path d="M3375 5471 c-3 -5 -2 -12 3 -15 5 -3 9 1 9 9 0 17 -3 19 -12 6z"/>
<path d="M3327 5456 c-12 -9 -14 -16 -8 -21 6 -3 11 -1 11 5 0 7 7 10 14 7 10
-4 13 -1 9 9 -3 7 -6 14 -7 14 0 0 -9 -7 -19 -14z"/>
<path d="M3669 5453 c-13 -16 -12 -17 4 -4 16 13 21 21 13 21 -2 0 -10 -8 -17
-17z"/>
<path d="M3275 5420 c-10 -11 -14 -20 -9 -20 5 0 15 9 22 20 7 11 11 20 9 20
-2 0 -12 -9 -22 -20z"/>
<path d="M3292 5400 c-7 -11 -8 -20 -3 -20 9 0 24 30 18 36 -1 2 -8 -6 -15
-16z"/>
<path d="M5680 5411 c0 -5 7 -15 17 -22 15 -13 15 -12 4 9 -12 23 -21 28 -21
13z"/>
<path d="M4148 5403 c7 -3 16 -2 19 1 4 3 -2 6 -13 5 -11 0 -14 -3 -6 -6z"/>
<path d="M3224 5378 l-19 -23 23 19 c12 11 22 21 22 23 0 8 -8 2 -26 -19z"/>
<path d="M5670 5386 c0 -2 8 -10 18 -17 15 -13 16 -12 3 4 -13 16 -21 21 -21
13z"/>
<path d="M3329 5213 c-13 -16 -12 -17 4 -4 9 7 17 15 17 17 0 8 -8 3 -21 -13z"/>
<path d="M3338 5191 l-23 -26 28 25 c21 18 30 21 36 12 6 -10 10 -10 19 0 22
27 -36 17 -60 -11z"/>
<path d="M3081 5103 c-2 -20 16 -24 30 -5 13 15 12 16 -3 4 -13 -10 -17 -10
-21 0 -4 9 -6 9 -6 1z"/>
<path d="M3150 5049 c0 -5 5 -7 10 -4 6 3 10 8 10 11 0 2 -4 4 -10 4 -5 0 -10
-5 -10 -11z"/>
<path d="M3736 4701 c-3 -4 6 -6 19 -3 14 2 25 6 25 8 0 8 -39 4 -44 -5z"/>
<path d="M3860 4511 c0 -6 4 -13 10 -16 6 -3 7 1 4 9 -7 18 -14 21 -14 7z"/>
<path d="M3556 4487 c3 -10 9 -15 12 -12 3 3 0 11 -7 18 -10 9 -11 8 -5 -6z"/>
<path d="M3860 4250 c-9 -6 -10 -10 -3 -10 6 0 15 5 18 10 8 12 4 12 -15 0z"/>
<path d="M3816 4222 c-3 -5 1 -9 9 -9 8 0 12 4 9 9 -3 4 -7 8 -9 8 -2 0 -6 -4
-9 -8z"/>
<path d="M4020 4190 c-13 -8 -12 -10 3 -10 9 0 17 5 17 10 0 12 -1 12 -20 0z"/>
<path d="M4060 4136 c0 -2 8 -10 18 -17 15 -13 16 -12 3 4 -13 16 -21 21 -21
13z"/>
<path d="M3686 4018 c3 -5 10 -6 15 -3 13 9 11 12 -6 12 -8 0 -12 -4 -9 -9z"/>
<path d="M5240 4743 c0 -6 8 -17 18 -24 16 -13 16 -13 2 6 -8 11 -16 22 -17
24 -2 2 -3 0 -3 -6z"/>
<path d="M5330 4720 c-9 -6 -10 -10 -3 -10 6 0 15 5 18 10 8 12 4 12 -15 0z"/>
<path d="M5294 4672 c-7 -4 -8 -15 -3 -29 11 -30 14 -29 14 7 0 17 0 30 0 30
0 0 -5 -4 -11 -8z"/>
<path d="M5390 4669 c0 -5 5 -7 10 -4 6 3 10 8 10 11 0 2 -4 4 -10 4 -5 0 -10
-5 -10 -11z"/>
<path d="M5350 4539 c0 -5 5 -7 10 -4 6 3 10 8 10 11 0 2 -4 4 -10 4 -5 0 -10
-5 -10 -11z"/>
<path d="M5357 4509 c7 -7 15 -10 18 -7 3 3 -2 9 -12 12 -14 6 -15 5 -6 -5z"/>
<path d="M4673 4462 c-9 -6 -5 -17 18 -43 23 -26 27 -28 17 -9 -7 14 -17 28
-22 31 -5 4 -5 12 -2 18 8 13 6 14 -11 3z"/>
<path d="M5566 4443 c5 -5 12 -12 16 -18 4 -6 8 -2 8 8 0 9 -7 17 -17 17 -9 0
-12 -3 -7 -7z"/>
<path d="M5430 4426 c0 -2 8 -10 18 -17 15 -13 16 -12 3 4 -13 16 -21 21 -21
13z"/>
<path d="M5590 4381 c0 -6 4 -13 10 -16 6 -3 7 1 4 9 -7 18 -14 21 -14 7z"/>
<path d="M5518 4368 c5 -5 16 -8 23 -6 8 3 3 7 -10 11 -17 4 -21 3 -13 -5z"/>
<path d="M5590 4342 c0 -12 22 -32 35 -32 5 0 2 5 -8 11 -9 6 -15 14 -12 20 4
5 1 9 -4 9 -6 0 -11 -4 -11 -8z"/>
<path d="M4751 4283 c7 -12 15 -20 18 -17 3 2 -3 12 -13 22 -17 16 -18 16 -5
-5z"/>
<path d="M4760 4005 c0 -8 2 -15 4 -15 2 0 6 7 10 15 3 8 1 15 -4 15 -6 0 -10
-7 -10 -15z"/>
<path d="M4890 3981 c0 -6 4 -13 10 -16 6 -3 7 1 4 9 -7 18 -14 21 -14 7z"/>
<path d="M4910 3926 c0 -2 8 -10 18 -17 15 -13 16 -12 3 4 -13 16 -21 21 -21
13z"/>
<path d="M4970 3789 c0 -5 5 -7 10 -4 6 3 10 8 10 11 0 2 -4 4 -10 4 -5 0 -10
-5 -10 -11z"/>
<path d="M4995 3749 c-4 -6 -5 -12 -2 -15 2 -3 7 2 10 11 7 17 1 20 -8 4z"/>
<path d="M5050 3663 c0 -7 4 -14 10 -18 5 -3 7 -12 3 -20 -3 -8 -3 -15 0 -15
13 0 13 28 1 45 -8 10 -14 14 -14 8z"/>
<path d="M5080 3611 c0 -5 5 -13 10 -16 6 -3 10 -2 10 4 0 5 -4 13 -10 16 -5
3 -10 2 -10 -4z"/>
<path d="M4975 3529 c-4 -6 -5 -12 -2 -15 2 -3 7 2 10 11 7 17 1 20 -8 4z"/>
</g>
</svg>
