<?xml version="1.0" standalone="no"?>
<!DOCTYPE svg PUBLIC "-//W3C//DTD SVG 20010904//EN"
 "http://www.w3.org/TR/2001/REC-SVG-20010904/DTD/svg10.dtd">
<svg version="1.0" xmlns="http://www.w3.org/2000/svg"
 width="1106.000000pt" height="1541.000000pt" viewBox="0 0 1106.000000 1541.000000"
 preserveAspectRatio="xMidYMid meet">

<g transform="translate(0.000000,1541.000000) scale(0.100000,-0.100000)"
fill="#000000" stroke="none">
<path d="M5950 15384 c-289 -21 -748 -114 -1000 -204 -426 -152 -714 -306
-1000 -537 -106 -85 -127 -125 -146 -266 -7 -56 -14 -110 -14 -120 0 -12 -22
-28 -66 -49 -121 -58 -287 -248 -402 -457 -25 -47 -72 -121 -104 -166 -205
-282 -253 -356 -339 -520 -131 -251 -243 -552 -304 -820 -9 -38 -25 -104 -35
-145 -25 -97 -56 -350 -70 -560 -6 -91 -21 -232 -35 -315 -32 -200 -52 -362
-65 -522 -9 -108 -8 -164 5 -305 34 -374 98 -614 237 -893 94 -188 198 -335
349 -490 67 -69 88 -100 149 -219 l71 -140 -98 95 c-186 180 -431 334 -707
445 -117 47 -429 126 -573 144 -40 5 -94 20 -120 33 -84 42 -285 109 -352 118
-92 12 -225 11 -318 -2 -265 -37 -617 -253 -794 -488 -77 -103 -127 -209 -161
-339 -28 -111 -29 -124 -23 -257 3 -77 15 -194 25 -260 13 -83 20 -195 23
-365 6 -295 20 -400 92 -690 68 -276 128 -430 236 -607 153 -250 426 -531 679
-700 507 -338 997 -503 1497 -503 241 0 516 65 760 180 94 45 113 58 239 180
76 72 151 138 168 147 17 8 118 81 224 162 231 174 364 271 375 271 22 0 -19
-163 -66 -256 -19 -38 -60 -132 -91 -209 -32 -77 -67 -162 -78 -190 -47 -113
-126 -372 -142 -465 -5 -26 -27 -57 -87 -120 -103 -108 -227 -273 -316 -420
-186 -306 -246 -413 -361 -640 -69 -135 -131 -252 -138 -261 -18 -20 -80 -51
-274 -134 -434 -188 -750 -356 -975 -520 -155 -114 -224 -173 -382 -333 -189
-190 -281 -318 -396 -547 -81 -162 -123 -286 -156 -452 -57 -289 -62 -401 -25
-583 26 -130 99 -214 232 -269 129 -53 436 -120 712 -156 63 -8 185 -23 270
-34 319 -40 455 -46 1070 -46 588 0 845 11 1080 45 36 5 106 14 155 20 143 18
562 89 655 111 47 11 132 35 190 53 407 128 451 148 504 223 59 85 79 298 56
604 -13 155 -55 477 -75 564 -8 33 -21 103 -29 155 -51 328 -104 619 -172 955
-77 378 -123 542 -211 750 l-55 130 5 160 c3 99 15 221 31 320 47 287 46 283
69 289 51 14 55 9 126 -132 38 -77 81 -165 94 -198 14 -32 48 -111 77 -174 80
-178 198 -483 323 -835 l81 -230 -3 -110 c-2 -108 14 -373 44 -750 19 -232 37
-388 72 -610 14 -93 26 -177 26 -185 -1 -8 -4 -100 -8 -205 -10 -247 -5 -288
48 -367 200 -302 865 -710 1505 -923 111 -37 502 -138 601 -155 364 -62 445
-70 696 -77 228 -6 588 8 755 28 138 17 339 59 429 90 197 68 428 215 563 359
114 121 177 223 216 348 57 185 63 256 32 410 -47 236 -103 378 -224 575 -210
340 -471 618 -826 878 -104 76 -336 228 -572 373 -48 30 -94 68 -123 104 -94
114 -392 430 -531 563 -393 377 -802 697 -1162 911 -89 53 -175 112 -200 138
-76 78 -422 523 -555 713 -222 319 -196 263 -242 523 -14 78 -43 193 -64 256
-45 130 -66 215 -77 307 -5 46 -4 62 4 57 6 -4 43 -49 82 -100 92 -124 173
-218 349 -409 l145 -158 32 -98 c40 -123 60 -162 142 -280 71 -102 242 -307
300 -360 114 -103 306 -229 417 -273 114 -45 221 -61 392 -60 378 3 643 109
1063 425 164 124 428 383 528 517 319 431 388 899 205 1390 -154 413 -494 813
-862 1012 -17 10 -34 25 -37 35 -19 60 -83 192 -116 239 -21 30 -38 58 -38 62
0 4 23 21 51 37 139 82 329 257 472 433 151 186 321 540 382 797 82 342 107
865 54 1135 -19 102 -27 194 -49 595 -22 414 -70 706 -172 1045 -38 125 -54
170 -135 366 -40 97 -173 337 -254 459 -93 142 -181 249 -332 409 -73 77 -139
149 -147 161 -8 12 -28 42 -44 66 -75 112 -359 423 -508 556 -255 228 -508
385 -814 506 -234 92 -470 148 -894 213 -92 14 -595 27 -720 18z m675 -194
c88 -11 185 -25 215 -31 239 -47 474 -111 623 -170 227 -90 478 -230 663 -368
120 -89 356 -314 451 -429 104 -124 223 -284 217 -291 -2 -2 -28 18 -58 45
-76 69 -167 141 -250 198 -96 65 -308 167 -436 210 -201 66 -527 126 -691 126
-123 0 -330 -18 -424 -36 -171 -34 -378 -128 -590 -270 -165 -110 -207 -126
-220 -84 -4 11 -11 18 -16 14 -6 -3 -5 -12 3 -22 11 -13 10 -15 -4 -9 -10 3
-18 2 -18 -4 0 -6 -26 -9 -62 -8 -35 2 -74 -1 -88 -5 -19 -6 -21 -5 -10 3 13
9 13 11 -2 11 -10 0 -18 -4 -18 -10 0 -5 -13 -10 -30 -10 -16 0 -30 5 -30 10
0 6 -9 10 -19 10 -11 0 -23 5 -26 10 -4 6 -15 8 -25 5 -14 -4 -34 7 -67 37
-26 24 -50 46 -51 51 -2 4 -9 4 -15 0 -7 -3 -9 -2 -4 2 4 5 -7 15 -24 22 -19
8 -28 17 -23 24 4 7 3 9 -3 6 -6 -4 -31 9 -56 28 -25 19 -50 35 -56 35 -6 0
-25 9 -43 20 -22 13 -51 20 -85 20 -29 0 -53 5 -53 10 0 6 -17 9 -37 9 -38 -1
-38 -1 -8 -9 22 -6 9 -8 -48 -9 -43 0 -88 4 -99 10 -18 10 -20 9 -15 -5 6 -14
-5 -16 -76 -18 -45 -1 -109 -3 -142 -5 -33 -2 -86 -4 -117 -6 -32 -2 -61 -6
-64 -10 -12 -12 -44 -8 -44 6 0 9 -2 9 -8 -1 -9 -14 -177 -36 -194 -26 -7 4
-8 2 -4 -4 4 -7 -3 -11 -21 -11 -35 0 -126 -11 -203 -26 -19 -3 -42 -7 -50 -9
-8 -2 -31 -6 -50 -10 -19 -4 -55 -8 -78 -10 l-44 -3 6 51 c3 28 6 67 6 86 0
26 2 31 10 20 13 -20 13 -4 -1 21 -8 16 -5 28 12 57 13 20 28 40 33 44 7 5 7
8 1 8 -11 0 36 39 48 40 4 0 5 -11 1 -25 -3 -14 -2 -25 4 -25 5 0 12 14 16 31
5 29 9 31 36 26 16 -4 31 -3 34 1 7 11 -56 13 -70 1 -8 -6 -14 -6 -18 0 -12
18 278 220 422 294 158 81 425 187 609 241 201 60 501 118 698 136 153 14 600
3 780 -20z m-1194 -974 c161 -81 360 -260 455 -408 80 -123 75 -203 -31 -543
-98 -314 -240 -636 -328 -746 -50 -63 -150 -139 -184 -139 -13 0 -33 -5 -44
-10 -15 -9 -19 -7 -19 5 0 9 5 13 10 10 6 -3 10 -1 10 4 0 6 -7 11 -15 11 -8
0 -15 -9 -15 -20 0 -27 -67 -48 -100 -30 -19 10 -22 10 -18 -2 5 -11 -1 -13
-23 -10 -18 3 -29 0 -29 -8 0 -7 -8 -9 -21 -5 -12 4 -24 2 -29 -4 -4 -7 -39
-13 -86 -14 -43 -1 -81 -5 -84 -9 -6 -7 -122 -19 -235 -24 -91 -4 -99 -5 -106
-17 -5 -6 -18 -6 -39 2 -38 13 -65 14 -35 1 16 -7 12 -9 -20 -10 -22 -1 -44
-3 -50 -4 -32 -6 -245 -18 -395 -22 -96 -3 -215 -8 -265 -11 -138 -8 -347 29
-329 59 3 4 0 8 -7 8 -17 0 -38 31 -39 57 0 12 -4 24 -10 28 -5 3 -7 12 -3 20
3 9 -2 30 -11 49 -10 22 -14 45 -9 66 4 22 3 31 -4 27 -6 -4 -11 12 -13 41 -3
71 -8 146 -11 152 -1 3 -3 25 -5 50 -1 25 -7 88 -12 140 -7 71 -6 102 3 122
11 23 11 26 -4 21 -14 -4 -14 -3 2 10 19 16 24 32 6 21 -7 -4 -10 -1 -7 6 2 8
10 16 18 18 7 3 10 1 8 -4 -3 -5 -2 -19 2 -30 9 -22 27 -27 140 -39 95 -10
369 -2 503 15 48 6 92 8 98 4 5 -3 15 -2 22 3 7 5 50 11 97 12 151 4 178 6
186 14 4 4 14 7 23 7 13 -1 12 -3 -3 -15 -11 -8 -15 -15 -9 -15 7 0 18 7 27
15 8 9 37 18 63 20 26 3 73 10 104 15 45 8 63 7 85 -5 16 -8 36 -15 44 -14 8
0 -1 6 -20 14 -31 11 -32 14 -15 20 11 4 37 13 57 21 34 12 37 12 31 -3 -4
-11 -3 -14 5 -9 7 4 12 16 12 26 0 11 18 32 44 49 86 60 163 166 274 381 41
80 83 156 92 170 37 54 109 210 135 291 21 69 25 93 17 120 l-9 34 -7 -30
c-31 -132 -108 -309 -233 -540 -107 -197 -172 -293 -247 -362 -54 -51 -77 -65
-145 -88 -94 -31 -216 -51 -391 -65 -69 -6 -179 -15 -245 -20 -193 -16 -629
-13 -698 5 -32 8 -59 15 -61 15 -12 0 20 150 54 250 53 155 83 223 145 325 47
77 207 278 256 321 44 38 119 75 191 93 166 43 628 109 968 139 58 6 184 9
280 8 l175 -1 76 -39z m369 -146 c0 -5 -2 -10 -4 -10 -3 0 -8 5 -11 10 -3 6
-1 10 4 10 6 0 11 -4 11 -10z m2511 -116 c168 -49 348 -233 415 -424 23 -67
26 -86 22 -180 -5 -112 -22 -162 -70 -207 -92 -86 -266 -85 -428 4 -95 52
-234 197 -283 293 -39 78 -67 185 -67 257 0 73 38 170 81 206 75 63 215 85
330 51z m-1971 -2074 c147 -29 192 -44 260 -86 224 -138 393 -475 449 -897 22
-160 11 -431 -24 -607 -33 -165 -75 -349 -89 -389 -9 -24 -14 -46 -12 -48 2
-2 24 31 49 74 122 208 204 444 227 654 33 303 -62 735 -220 994 -23 39 -44
73 -47 78 -13 23 25 -2 108 -71 111 -92 278 -274 349 -381 28 -42 69 -112 90
-156 88 -180 181 -490 204 -675 2 -19 12 -96 22 -170 20 -160 23 -470 6 -607
-35 -263 -169 -633 -314 -867 -121 -194 -310 -419 -458 -547 -236 -203 -454
-331 -671 -394 -211 -61 -261 -67 -579 -65 -526 2 -737 30 -1080 142 -296 96
-648 273 -870 437 -104 77 -311 280 -383 376 -73 97 -133 219 -148 300 -21
114 2 297 52 410 l21 48 -20 96 c-12 53 -35 177 -51 276 -17 99 -39 234 -50
300 -20 118 -53 373 -67 510 -3 39 -8 79 -10 90 -13 64 -16 440 -5 529 35 275
153 416 314 376 l45 -12 -38 -34 c-54 -49 -115 -178 -139 -294 -27 -127 -45
-362 -37 -485 20 -324 131 -905 197 -1023 11 -21 17 -28 15 -17 -14 57 -37
202 -46 295 -6 58 -16 148 -22 200 -16 135 -16 744 0 845 30 190 71 295 141
358 36 32 47 37 91 37 47 0 54 -3 105 -53 55 -53 68 -77 40 -77 -29 0 -84 -61
-105 -116 -47 -126 -59 -266 -61 -679 -1 -374 34 -688 101 -906 49 -157 109
-217 202 -203 58 10 82 40 108 135 49 184 55 794 11 1322 -7 91 -2 107 19 57
27 -65 19 -68 217 81 194 146 410 284 652 418 152 85 228 123 449 227 l93 44
-25 -48 c-36 -67 -73 -203 -85 -315 -16 -137 -15 -157 7 -157 34 0 52 25 71
101 51 202 215 424 384 518 120 69 355 90 557 51z m3115 -321 c78 -14 179 -66
237 -122 49 -48 100 -137 124 -217 71 -239 131 -673 106 -764 -7 -27 -10 -24
-31 47 -30 101 -72 163 -137 199 -109 61 -215 55 -356 -19 -132 -69 -275 -240
-382 -456 -68 -136 -98 -226 -136 -407 -12 -58 -29 -121 -37 -140 -8 -20 -16
-51 -17 -70 -2 -19 -9 -69 -15 -110 -11 -69 -9 -181 5 -305 3 -27 7 -74 9
-103 1 -29 6 -56 10 -60 4 -4 5 3 2 15 -3 13 -2 25 3 28 12 8 18 -30 7 -50 -6
-12 -6 -16 0 -12 18 11 52 -27 42 -45 -6 -11 -4 -20 8 -29 12 -10 15 -10 9 -1
-4 7 -1 12 9 12 10 0 13 -5 9 -12 -4 -6 -3 -8 4 -5 11 7 72 -23 72 -35 0 -5 7
-8 15 -8 8 0 15 -6 16 -12 0 -10 2 -10 6 -1 3 10 10 10 25 2 12 -6 38 -11 60
-11 21 1 38 -4 38 -10 0 -5 -7 -7 -16 -4 -8 3 -13 2 -10 -3 3 -5 -1 -14 -9
-21 -8 -7 -15 -9 -15 -6 0 8 -61 -32 -70 -45 -5 -7 -59 -30 -70 -30 -3 0 -12
-6 -20 -13 -8 -7 -28 -16 -45 -20 -22 -5 -26 -4 -15 4 17 11 10 13 -14 4 -9
-3 -16 -12 -16 -20 0 -8 -9 -14 -20 -14 -12 0 -20 7 -20 16 0 12 -6 15 -22 9
-13 -4 -32 -6 -43 -5 -11 2 -77 3 -146 4 -89 1 -130 -3 -141 -12 -9 -7 -20
-12 -24 -10 -5 1 -23 -6 -41 -15 -40 -21 -38 -22 -65 8 -55 59 -80 108 -72
144 4 19 3 22 -4 12 -8 -11 -14 -1 -27 43 -9 31 -14 63 -11 71 2 7 1 15 -4 17
-13 4 -34 105 -32 156 0 23 -2 41 -6 38 -4 -2 -8 9 -9 25 -1 16 2 29 7 29 4 0
4 17 -2 37 -6 23 -8 89 -3 173 3 74 6 150 6 168 -1 17 4 32 10 32 6 0 8 9 4
21 -11 33 4 92 21 85 8 -3 14 -1 14 3 0 5 8 7 19 4 10 -3 22 0 26 7 5 8 -4 10
-34 5 -50 -7 -49 -12 -20 146 21 122 44 205 115 419 59 176 104 283 221 518
224 452 434 671 686 717 92 17 139 18 212 4z m-6900 -687 c28 -269 51 -402
105 -615 95 -376 199 -664 374 -1032 34 -71 50 -118 46 -129 -12 -34 -204 225
-293 394 -90 171 -162 378 -216 620 -38 174 -49 252 -57 432 -7 148 10 403 27
393 4 -3 10 -31 14 -63z m1365 -12 c11 -6 31 -31 46 -56 24 -41 26 -52 22
-127 -3 -50 -11 -95 -21 -114 -16 -29 -22 -33 -61 -33 -63 0 -98 43 -111 136
-18 139 45 237 125 194z m5797 -198 c18 -8 30 -19 27 -24 -3 -4 3 -8 13 -8 37
0 44 -21 21 -59 -15 -25 -17 -32 -6 -23 13 10 17 10 22 0 3 -7 3 -3 1 9 -3 12
-1 24 4 27 13 8 30 -24 23 -43 -2 -8 0 -11 6 -7 13 8 23 -19 15 -41 -5 -11 -3
-14 6 -8 10 6 11 3 2 -13 -14 -25 -14 -43 -1 -22 8 12 10 10 11 -10 1 -14 4
-36 6 -50 9 -55 14 -200 6 -200 -7 0 -11 -45 -12 -148 -1 -18 -4 -31 -9 -28
-4 2 -6 -12 -5 -32 8 -127 -135 -512 -256 -691 -69 -102 -185 -235 -237 -273
-67 -48 -160 -79 -227 -74 -63 4 -138 33 -118 45 10 7 9 10 -4 14 -9 4 -13 3
-10 -3 3 -6 2 -10 -3 -10 -15 0 -53 50 -73 97 -20 48 -25 69 -8 41 5 -10 15
-18 21 -18 6 0 -1 11 -15 24 -25 23 -26 26 -10 41 9 9 24 15 33 12 9 -2 17 1
17 8 0 9 -8 10 -31 4 -38 -11 -38 -11 -31 0 3 5 1 12 -5 16 -5 3 -10 15 -10
26 0 11 5 17 10 14 6 -4 8 -11 5 -16 -4 -5 2 -8 12 -7 43 3 63 -3 63 -19 0
-13 3 -14 12 -5 7 7 24 12 39 12 15 0 31 5 34 10 4 6 25 20 47 31 96 49 233
208 305 354 63 127 87 190 113 292 26 105 39 140 48 127 4 -6 27 -14 52 -17
36 -5 40 -4 21 4 -14 5 -32 15 -40 22 -12 9 -13 9 -7 0 10 -18 -9 -16 -24 2
-8 9 -8 15 -2 15 15 0 27 63 13 68 -13 4 -15 62 -2 62 5 0 12 7 15 16 3 8 2
12 -4 9 -6 -4 -9 12 -8 40 1 25 6 45 10 45 4 0 3 11 -4 25 -6 13 -14 22 -18
20 -4 -2 -6 15 -6 40 1 33 -5 49 -23 69 -14 14 -19 26 -13 26 6 0 16 -8 21
-17 10 -17 10 -17 11 0 0 9 5 17 11 17 7 0 9 -11 5 -27 -3 -16 -3 -22 0 -15 3
6 10 10 15 6 11 -6 -8 45 -23 63 -12 15 -44 17 -52 4 -4 -5 2 -7 13 -4 10 3
22 0 26 -7 10 -15 -1 -24 -17 -14 -7 5 -17 9 -23 9 -5 1 -8 7 -6 15 3 16 3 43
0 72 -3 20 -19 14 -19 -7 0 -8 -7 -11 -20 -8 -23 6 -27 23 -6 23 20 0 29 17
15 26 -8 4 -9 3 -5 -4 4 -7 4 -12 -1 -12 -4 0 -18 -3 -30 -6 -14 -4 -23 -2
-23 5 0 7 5 9 12 5 7 -4 8 -3 4 4 -11 18 -26 14 -26 -6 0 -12 13 -23 35 -32
19 -8 35 -19 35 -24 0 -6 4 -4 10 4 5 8 13 11 17 6 4 -5 2 -11 -5 -13 -6 -3
-9 -10 -5 -16 4 -6 -9 0 -27 13 -19 13 -54 29 -78 35 l-44 11 63 38 c34 21 79
39 98 42 19 2 36 6 38 8 11 10 142 1 170 -12z m-229 -582 c12 -18 22 -45 22
-60 0 -36 -35 -79 -78 -97 -33 -14 -36 -13 -70 14 -42 34 -54 70 -41 117 11
41 28 56 72 66 44 9 68 -1 95 -40z m89 18 c-3 -8 -6 -5 -6 6 -1 11 2 17 5 13
3 -3 4 -12 1 -19z m-5609 -318 c5 -44 -17 -208 -30 -234 -14 -25 -24 -11 -42
60 -33 127 -14 219 42 212 23 -3 28 -9 30 -38z m-2949 -824 c16 -18 4 -64 -19
-76 -44 -23 -114 8 -94 42 27 48 87 66 113 34z m7781 -256 c0 -5 -5 -10 -11
-10 -5 0 -7 5 -4 10 3 6 8 10 11 10 2 0 4 -4 4 -10z m-6109 -24 c93 -28 140
-58 194 -123 65 -79 90 -149 90 -253 0 -91 -27 -148 -93 -195 -43 -29 -46 -30
-165 -30 -116 0 -125 1 -189 32 -165 78 -274 251 -239 378 22 84 105 170 187
195 45 13 166 11 215 -4z m835 -405 c255 -231 680 -455 1142 -602 39 -13 72
-26 72 -31 0 -8 -26 -23 -245 -141 -88 -48 -203 -113 -255 -146 -52 -33 -129
-81 -170 -106 -41 -26 -87 -59 -103 -73 -32 -31 -39 -25 -56 48 -8 30 -17 60
-21 65 -4 6 -18 41 -29 80 -20 63 -69 202 -124 345 -19 51 -99 230 -168 376
-16 34 -55 102 -88 151 -32 50 -64 100 -71 112 -10 20 -10 22 7 12 11 -5 59
-46 109 -90z m4214 -288 c0 -5 -8 -28 -16 -53 -9 -25 -19 -83 -23 -129 l-6
-85 -110 -69 c-60 -38 -133 -88 -160 -112 l-51 -43 -34 17 c-123 60 -404 232
-402 246 1 5 17 11 36 13 50 3 397 102 581 165 166 57 185 62 185 50z m-1291
-264 l-24 -21 31 21 c22 14 44 19 75 17 47 -3 113 -31 105 -45 -3 -5 2 -8 12
-8 43 0 48 -3 32 -14 -13 -9 -12 -10 2 -5 24 7 80 -13 71 -27 -3 -5 -1 -7 4
-4 10 6 103 -39 103 -50 0 -2 -10 -2 -22 1 -13 3 -17 3 -10 0 6 -3 10 -10 6
-15 -3 -5 -1 -9 5 -9 5 0 13 5 17 11 14 24 63 -2 316 -167 l137 -90 -48 -65
c-108 -143 -201 -358 -227 -519 -4 -22 -10 -40 -15 -40 -5 0 -9 -27 -9 -61 0
-37 -4 -58 -10 -54 -5 3 -10 1 -10 -4 0 -6 4 -11 10 -11 5 0 8 -6 5 -12 -9
-30 -12 -209 -3 -214 6 -4 5 -10 -3 -15 -12 -8 -11 -11 1 -19 8 -5 11 -10 7
-10 -4 0 -3 -10 3 -22 10 -22 10 -22 -4 -4 -8 10 -29 34 -46 52 -17 19 -28 34
-25 34 3 0 -14 18 -37 40 -24 23 -35 38 -25 34 10 -3 17 -1 17 5 0 6 -8 11
-18 11 -10 0 -39 21 -65 48 -44 45 -46 48 -27 60 11 7 20 17 20 24 0 6 -9 3
-20 -7 -19 -17 -20 -16 -54 16 -19 18 -33 36 -31 40 3 4 -2 10 -11 13 -8 3
-12 11 -8 17 4 7 3 9 -4 5 -15 -9 -72 63 -64 82 4 11 1 14 -11 9 -10 -4 -24 5
-40 26 -13 18 -24 35 -23 39 1 4 -8 14 -19 23 -11 9 -13 13 -5 9 13 -7 13 -5
1 9 -7 9 -19 17 -26 17 -20 0 -76 86 -69 107 4 12 3 14 -3 5 -7 -10 -13 -9
-25 5 -27 32 -33 47 -15 40 9 -3 19 -2 21 2 3 4 -7 7 -22 7 -15 -1 -31 1 -37
5 -21 13 -46 19 -40 9 7 -11 -6 -18 -42 -23 -12 -2 -26 -6 -29 -10 -15 -15
-26 -6 -13 11 7 9 0 5 -16 -9 -34 -30 -70 -46 -59 -26 3 6 -6 -1 -20 -17 -15
-17 -24 -36 -21 -44 3 -8 0 -21 -6 -28 -6 -7 -9 -19 -6 -26 4 -8 6 -7 6 5 1
20 17 23 24 5 2 -8 8 -9 13 -4 5 5 4 11 -3 13 -7 3 -13 13 -13 23 0 16 8 18
68 17 72 -1 80 -6 81 -60 1 -18 -3 -26 -10 -21 -8 5 -8 1 0 -14 6 -11 11 -67
11 -123 0 -83 -3 -106 -17 -123 -17 -20 -17 -20 0 -7 13 11 17 11 17 1 0 -17
-30 -50 -44 -50 -6 0 -2 7 8 15 18 14 18 15 2 15 -10 0 -20 -8 -23 -19 -5 -20
-103 -48 -124 -35 -8 4 -9 3 -5 -4 4 -7 3 -12 -3 -12 -6 0 -12 32 -14 73 l-3
72 -2 -77 c-1 -43 -5 -78 -9 -78 -5 -1 -28 -5 -53 -10 -85 -18 -355 -40 -490
-40 -167 0 -330 13 -435 35 -78 16 -125 36 -68 29 16 -2 20 -1 8 3 -11 3 -23
10 -27 17 -6 8 -8 7 -8 -2 0 -7 -5 -10 -12 -6 -7 4 -8 3 -4 -4 9 -15 12 -15
-51 2 -29 8 -53 12 -53 9 0 -3 -6 0 -14 6 -7 6 -36 18 -64 26 -79 24 -96 50
-71 112 7 15 13 39 15 52 2 14 10 29 19 33 8 5 15 16 15 24 0 9 5 12 12 8 7
-4 8 -3 4 5 -4 6 -11 9 -16 6 -5 -3 -6 12 -3 32 3 21 10 40 15 41 4 2 8 14 8
26 0 13 3 26 7 30 4 3 8 16 10 27 2 11 14 44 26 72 13 29 34 78 46 109 13 32
27 55 32 52 5 -3 8 3 7 13 -3 24 42 124 53 117 5 -3 6 1 3 9 -3 8 2 22 12 31
21 22 11 32 -14 15 -28 -20 -115 -127 -145 -179 -53 -90 -68 -121 -63 -129 3
-4 -1 -17 -9 -27 -8 -10 -15 -24 -15 -31 0 -7 -16 -45 -35 -86 -19 -41 -35
-79 -35 -86 0 -7 -7 -25 -15 -39 -8 -15 -21 -45 -29 -67 -12 -36 -16 -40 -52
-43 -21 -1 -46 -10 -54 -19 -9 -9 -10 -13 -2 -9 34 20 71 24 76 10 3 -9 1 -12
-4 -9 -6 3 -10 0 -10 -7 0 -8 -24 -37 -54 -66 -44 -41 -56 -48 -59 -34 -4 13
-5 12 -6 -5 -1 -22 -53 -73 -74 -73 -7 0 -6 5 3 11 13 9 13 10 0 6 -8 -2 -14
-11 -12 -21 3 -19 -9 -21 -28 -3 -12 10 -12 9 -2 -4 10 -14 6 -21 -25 -45 -21
-15 -39 -32 -41 -36 -2 -4 -9 -8 -15 -8 -6 0 -21 -9 -33 -21 -21 -19 -51 -19
-39 1 6 10 -34 25 -42 16 -4 -3 1 -6 10 -6 25 0 21 -18 -5 -23 -16 -3 -13 -4
6 -3 35 1 47 -21 14 -26 -13 -2 -22 -8 -21 -13 1 -9 -124 -110 -137 -110 -3 0
-16 -10 -30 -23 -13 -12 -30 -20 -36 -18 -6 2 -17 -7 -25 -20 -7 -14 -18 -23
-24 -20 -7 2 -18 0 -26 -6 -11 -7 -9 -8 6 -3 24 8 20 3 -28 -29 -42 -29 -67
-35 -43 -10 18 17 21 44 6 44 -5 0 -10 -9 -10 -19 0 -11 -5 -23 -10 -26 -8 -5
-7 -12 2 -23 10 -12 10 -14 1 -8 -8 4 -13 2 -14 -6 0 -7 -4 -4 -9 7 -8 19 -9
19 -9 -2 -1 -25 -32 -46 -55 -37 -12 4 -15 2 -10 -9 3 -8 1 -18 -5 -22 -6 -3
-15 5 -21 20 -12 32 -13 45 -1 26 6 -10 9 -4 8 20 0 19 7 50 16 68 10 19 15
42 12 52 -3 10 1 34 10 55 8 20 14 39 12 41 -4 3 3 34 28 133 2 8 4 19 4 23 1
4 10 3 22 -3 11 -6 28 -9 37 -7 13 4 13 5 -4 6 -11 0 -28 7 -37 14 -16 11 -16
20 8 132 42 197 77 329 93 348 18 21 474 325 577 385 39 23 83 43 100 46 16 3
31 10 33 16 5 14 64 45 81 41 8 -1 10 2 6 9 -6 9 -2 9 14 1 28 -15 46 -5 29
17 -10 12 -10 14 0 8 7 -4 12 -2 12 4 0 6 5 8 10 5 6 -3 10 -1 10 5 0 7 7 10
15 6 8 -3 15 0 15 7 0 13 91 60 115 60 8 0 17 7 20 15 3 8 12 11 21 8 8 -3 12
-2 9 4 -6 9 26 14 70 11 17 -2 17 0 5 8 -13 9 -13 11 3 12 20 2 26 3 47 12 50
20 117 26 300 25 113 0 268 2 345 5 81 3 132 2 120 -3 -14 -6 -15 -9 -5 -9 9
-1 25 5 36 13 11 8 34 14 50 14 16 -1 39 2 52 6 14 5 29 3 39 -6 10 -8 14 -8
10 -1 -10 15 14 22 90 25 34 2 59 5 57 8 -6 5 223 70 249 70 9 0 17 4 17 9 0
8 18 16 44 20 4 0 -2 -8 -15 -20z m-1744 -337 c-3 -3 -11 0 -18 7 -9 10 -8 11
6 5 10 -3 15 -9 12 -12z m-1051 -1431 c3 -5 -1 -11 -9 -14 -9 -4 -12 -1 -8 9
6 16 10 17 17 5z m834 -89 c6 -18 7 -30 2 -27 -5 3 -8 -3 -7 -14 0 -10 6 -17
12 -15 16 7 46 -61 33 -74 -13 -13 -3 -42 14 -42 10 0 10 2 -1 9 -7 5 -12 14
-9 21 2 6 14 -8 28 -32 13 -24 17 -38 9 -32 -25 19 -58 23 -70 7 -11 -12 -8
-13 15 -7 45 11 70 -11 152 -135 43 -64 93 -135 110 -159 18 -24 31 -49 28
-57 -3 -7 0 -16 5 -20 6 -3 8 -11 5 -17 -4 -6 -2 -8 4 -4 6 3 14 1 17 -5 4 -5
14 -8 22 -5 8 3 33 -8 56 -24 87 -63 145 -99 151 -93 3 4 6 1 6 -5 0 -7 9 -12
20 -12 11 0 29 -9 39 -19 11 -11 23 -16 26 -13 4 4 4 -4 0 -18 -5 -14 -8 -32
-8 -40 0 -8 -3 -19 -7 -25 -4 -5 -8 -28 -9 -50 0 -22 -2 -49 -5 -60 -2 -11 -9
-56 -16 -100 -10 -70 -18 -110 -25 -137 -2 -5 -3 -13 -4 -19 0 -5 -6 -7 -13
-3 -7 5 -8 3 -3 -6 12 -20 7 -95 -12 -170 -9 -36 -16 -89 -16 -118 l-1 -53
-34 34 c-29 29 -32 37 -23 55 13 24 15 69 3 76 -4 2 -6 -10 -4 -27 2 -18 -3
-40 -11 -51 -13 -17 -22 -11 -153 96 -76 63 -157 127 -179 143 -56 42 -168
136 -177 149 -5 6 -6 23 -3 37 4 18 0 30 -12 39 -15 12 -16 12 -5 0 19 -22 14
-35 -6 -17 -10 10 -23 17 -28 17 -5 0 2 -9 16 -20 14 -10 22 -21 19 -24 -3 -3
-33 20 -66 52 -36 34 -80 64 -109 75 -27 11 -59 23 -71 29 -11 6 -26 7 -32 4
-6 -4 -11 0 -11 8 0 9 4 16 8 16 5 0 7 15 5 33 -3 27 -2 29 7 12 8 -16 9 -12
5 18 -6 35 7 52 18 25 4 -8 6 -7 6 4 1 9 -4 18 -11 20 -8 3 -7 18 5 55 9 29
17 59 17 68 0 9 3 14 8 12 4 -3 7 11 8 31 1 42 9 79 26 119 14 35 15 39 17 62
0 11 8 26 16 34 8 8 11 17 8 21 -4 3 -1 6 6 6 8 0 11 6 7 16 -9 25 20 65 41
57 15 -6 16 -5 3 9 -8 9 -19 13 -24 10 -6 -3 0 9 13 26 12 18 20 32 16 32 -3
0 15 39 41 88 26 48 53 98 61 112 7 14 13 31 13 39 0 19 5 12 18 -27z m1788
-147 c4 -8 11 -15 16 -15 6 0 8 7 4 15 -4 12 3 15 34 15 21 0 41 -4 45 -9 3
-6 13 -9 23 -9 30 3 73 -12 67 -22 -3 -6 2 -10 13 -10 20 0 79 -56 69 -66 -4
-4 -9 1 -13 10 -3 9 -12 16 -19 16 -26 0 -25 -19 0 -44 14 -14 25 -21 25 -17
0 5 -7 14 -15 21 -8 7 -15 17 -15 23 0 5 8 3 18 -6 10 -10 21 -15 24 -11 9 8
69 -86 62 -97 -3 -6 2 -9 12 -7 14 2 19 -3 18 -18 0 -14 4 -20 13 -17 9 4 12
-3 9 -24 -2 -19 2 -30 10 -30 10 0 10 5 2 21 -10 19 -10 20 5 7 10 -7 17 -22
17 -32 0 -11 6 -19 13 -19 7 0 23 -18 37 -40 14 -22 27 -40 31 -40 9 0 30 -50
25 -59 -3 -4 0 -13 6 -21 8 -12 9 -12 4 3 -3 9 -2 17 2 17 10 -1 72 -85 72
-99 0 -7 4 -10 8 -7 5 3 17 -9 27 -27 10 -18 33 -48 51 -67 18 -19 57 -66 86
-105 30 -38 91 -119 137 -178 45 -60 81 -110 79 -112 -2 -2 -37 6 -78 16 -142
37 -243 44 -360 25 -211 -33 -327 -119 -428 -317 -29 -57 -65 -138 -81 -179
-15 -41 -33 -74 -39 -73 -11 3 -17 -17 -13 -40 1 -5 -4 -5 -10 -1 -9 5 -10 2
-6 -9 3 -9 1 -17 -5 -19 -6 -2 -12 -20 -14 -39 -1 -19 -12 -63 -24 -97 -12
-34 -18 -67 -14 -73 4 -7 1 -10 -7 -7 -8 3 -13 16 -12 29 l3 24 -15 -25 c-15
-27 -21 -54 -6 -31 7 11 11 10 18 -5 11 -23 -5 -167 -17 -159 -5 3 -5 19 0 35
5 19 5 28 -1 25 -5 -4 -9 -13 -9 -22 0 -39 -17 8 -19 52 -1 17 -3 18 -12 5 -9
-12 -10 -11 -6 8 3 12 1 22 -4 22 -6 0 -5 9 1 21 7 11 9 23 6 27 -3 3 -6 0 -6
-6 0 -7 -5 -12 -11 -12 -6 0 -9 9 -6 19 3 11 -1 22 -8 25 -7 2 -16 18 -20 35
-4 17 -13 45 -22 62 -8 16 -16 35 -17 42 -2 7 -8 25 -14 40 -15 35 -15 40 -2
32 6 -3 10 -1 10 4 0 6 6 11 14 11 8 0 17 7 20 16 5 14 4 15 -8 5 -11 -9 -15
-9 -19 1 -3 8 -6 6 -6 -5 -1 -26 -23 -16 -40 19 -8 16 -23 45 -33 65 -21 43
-23 53 -5 43 6 -4 2 3 -10 14 -29 28 -48 89 -34 106 8 9 7 13 -4 13 -8 0 -12
-4 -9 -9 3 -4 3 -8 0 -8 -8 0 -38 71 -40 93 0 10 -6 21 -12 25 -13 9 -40 74
-36 86 2 5 -1 12 -6 15 -19 12 -59 109 -56 137 2 20 1 25 -6 14 -7 -11 -11 -8
-20 15 -6 17 -18 43 -25 59 -8 16 -12 33 -8 39 3 5 1 7 -4 4 -11 -7 -23 23
-23 58 0 17 2 17 10 5 6 -9 10 -10 10 -3 0 6 -4 14 -9 17 -4 3 -7 22 -5 43 2
25 0 32 -6 23 -5 -8 -7 -23 -4 -32 3 -11 0 -18 -8 -18 -10 0 -10 -2 -1 -8 8
-5 9 -13 3 -22 -8 -12 -10 -11 -11 5 -1 11 -1 26 0 34 2 8 -2 10 -10 5 -9 -5
-10 -2 -6 9 3 10 2 17 -4 17 -6 0 -7 5 -4 10 4 6 10 8 15 5 5 -3 11 -1 15 4 3
6 -5 8 -19 5 -23 -4 -34 13 -41 61 -1 6 -7 23 -14 39 -13 33 -13 216 0 216 5
0 6 8 2 18 -5 14 -3 15 8 5 16 -16 29 -17 29 -2 0 5 -4 8 -9 5 -10 -7 -20 23
-13 43 4 11 6 11 14 0 7 -10 8 -8 5 9 -3 12 0 22 6 22 6 0 8 3 4 6 -13 13 34
83 95 140 118 109 263 162 451 163 87 1 109 -2 113 -14z m-1431 -425 c10 -11
16 -22 14 -25 -7 -6 -49 24 -49 36 0 15 16 10 35 -11z"/>
<path d="M5850 14743 c0 -6 5 -15 10 -18 6 -4 8 -11 5 -16 -4 -5 -1 -9 4 -9
15 0 14 13 -4 36 -8 10 -15 14 -15 7z"/>
<path d="M5750 14733 c0 -16 19 -37 27 -30 4 5 1 13 -7 18 -11 7 -5 8 19 4 23
-5 31 -4 27 4 -8 12 -66 15 -66 4z"/>
<path d="M5643 14722 c-31 -5 -29 -22 3 -22 16 0 23 4 18 11 -4 7 0 9 13 5 11
-4 31 -2 44 3 21 8 18 9 -16 8 -22 -1 -50 -3 -62 -5z"/>
<path d="M5453 14701 c-73 -9 -138 -22 -145 -29 -7 -7 -8 -12 -2 -12 6 0 14 3
18 8 4 4 26 7 49 8 23 0 66 6 96 12 29 7 71 12 92 12 22 0 39 5 39 10 0 6 -3
10 -7 9 -5 -1 -68 -9 -140 -18z"/>
<path d="M5665 14689 c-17 -6 -16 -8 7 -8 15 -1 29 3 32 7 6 11 -14 11 -39 1z"/>
<path d="M5883 14660 c0 -17 5 -27 10 -23 6 4 8 0 5 -9 -4 -8 -1 -15 7 -15 10
0 9 8 -2 36 -19 46 -20 46 -20 11z"/>
<path d="M5208 14663 c6 -2 18 -2 25 0 6 3 1 5 -13 5 -14 0 -19 -2 -12 -5z"/>
<path d="M5608 14663 c6 -2 18 -2 25 0 6 3 1 5 -13 5 -14 0 -19 -2 -12 -5z"/>
<path d="M5101 14656 c2 -2 26 -6 53 -9 30 -3 43 -1 35 4 -13 8 -97 13 -88 5z"/>
<path d="M5850 14641 c0 -11 4 -22 9 -25 4 -3 6 6 3 19 -5 30 -12 33 -12 6z"/>
<path d="M5009 14637 c5 -5 24 -4 42 1 l34 10 -42 -1 c-23 -1 -38 -6 -34 -10z"/>
<path d="M5260 14640 c20 -5 39 -5 45 1 5 5 -8 9 -35 8 l-45 -1 35 -8z"/>
<path d="M4950 14630 c8 -5 20 -10 25 -10 6 0 3 5 -5 10 -8 5 -19 10 -25 10
-5 0 -3 -5 5 -10z"/>
<path d="M4876 14622 c-3 -5 8 -6 25 -4 16 2 29 6 29 8 0 8 -49 4 -54 -4z"/>
<path d="M5075 14620 c4 -6 11 -8 16 -5 14 9 11 15 -7 15 -8 0 -12 -5 -9 -10z"/>
<path d="M5168 14623 c6 -2 18 -2 25 0 6 3 1 5 -13 5 -14 0 -19 -2 -12 -5z"/>
<path d="M5641 14626 c2 -2 18 -6 34 -10 22 -5 26 -4 15 4 -14 9 -59 15 -49 6z"/>
<path d="M5924 14575 c4 -16 12 -34 17 -40 5 -5 4 6 -2 25 -15 45 -24 54 -15
15z"/>
<path d="M4566 14582 c-3 -5 8 -6 25 -4 16 2 29 6 29 8 0 8 -49 4 -54 -4z"/>
<path d="M4460 14570 c0 -5 5 -10 10 -10 6 0 10 5 10 10 0 6 -4 10 -10 10 -5
0 -10 -4 -10 -10z"/>
<path d="M4500 14570 c-13 -8 -13 -10 2 -10 9 0 20 5 23 10 8 13 -5 13 -25 0z"/>
<path d="M4388 14563 c7 -3 16 -2 19 1 4 3 -2 6 -13 5 -11 0 -14 -3 -6 -6z"/>
<path d="M4608 14563 c7 -3 16 -2 19 1 4 3 -2 6 -13 5 -11 0 -14 -3 -6 -6z"/>
<path d="M4680 14560 c-18 -12 -2 -12 25 0 13 6 15 9 5 9 -8 0 -22 -4 -30 -9z"/>
<path d="M4270 14550 c-13 -9 -13 -10 0 -9 8 0 24 4 35 9 l20 9 -20 0 c-11 0
-27 -4 -35 -9z"/>
<path d="M4545 14550 c-3 -5 -1 -10 4 -10 6 0 11 5 11 10 0 6 -2 10 -4 10 -3
0 -8 -4 -11 -10z"/>
<path d="M4151 14504 c0 -11 3 -14 6 -6 3 7 2 16 -1 19 -3 4 -6 -2 -5 -13z"/>
<path d="M5921 14498 c1 -19 2 -19 6 -5 3 11 11 16 19 13 9 -3 12 -1 9 4 -12
19 -35 10 -34 -12z"/>
<path d="M4061 14457 c-8 -10 -7 -14 2 -14 8 0 14 6 14 14 0 7 -1 13 -2 13 -2
0 -8 -6 -14 -13z"/>
<path d="M5923 14406 c1 -32 3 -35 10 -18 6 12 5 27 -1 38 -8 15 -10 11 -9
-20z"/>
<path d="M5963 14396 c7 -14 13 -23 15 -21 7 6 -9 45 -18 45 -4 0 -3 -11 3
-24z"/>
<path d="M5996 14377 c3 -10 9 -15 12 -12 3 3 0 11 -7 18 -10 9 -11 8 -5 -6z"/>
<path d="M4046 14372 c5 -4 12 -11 15 -15 3 -5 9 -2 12 5 3 9 -3 14 -15 15
-11 1 -16 -1 -12 -5z"/>
<path d="M5185 14360 c-16 -7 -17 -9 -3 -9 9 -1 20 4 23 9 7 11 7 11 -20 0z"/>
<path d="M4640 14349 c0 -5 5 -7 10 -4 6 3 10 8 10 11 0 2 -4 4 -10 4 -5 0
-10 -5 -10 -11z"/>
<path d="M4728 14353 c7 -3 16 -2 19 1 4 3 -2 6 -13 5 -11 0 -14 -3 -6 -6z"/>
<path d="M4938 14353 c6 -2 18 -2 25 0 6 3 1 5 -13 5 -14 0 -19 -2 -12 -5z"/>
<path d="M5428 14353 c6 -2 18 -2 25 0 6 3 1 5 -13 5 -14 0 -19 -2 -12 -5z"/>
<path d="M5018 14343 c6 -2 18 -2 25 0 6 3 1 5 -13 5 -14 0 -19 -2 -12 -5z"/>
<path d="M5388 14343 c7 -3 16 -2 19 1 4 3 -2 6 -13 5 -11 0 -14 -3 -6 -6z"/>
<path d="M5466 14335 c-11 -8 -15 -15 -9 -15 6 0 16 7 23 15 16 19 11 19 -14
0z"/>
<path d="M4042 14315 c0 -16 2 -22 5 -12 2 9 2 23 0 30 -3 6 -5 -1 -5 -18z"/>
<path d="M4680 14329 c-11 -7 -4 -8 25 -3 50 8 58 14 19 14 -16 0 -36 -5 -44
-11z"/>
<path d="M4928 14333 c6 -2 18 -2 25 0 6 3 1 5 -13 5 -14 0 -19 -2 -12 -5z"/>
<path d="M4062 14310 c0 -14 2 -19 5 -12 2 6 2 18 0 25 -3 6 -5 1 -5 -13z"/>
<path d="M4768 14313 c6 -2 18 -2 25 0 6 3 1 5 -13 5 -14 0 -19 -2 -12 -5z"/>
<path d="M6016 14303 c-6 -14 -5 -15 5 -6 7 7 10 15 7 18 -3 3 -9 -2 -12 -12z"/>
<path d="M5511 14293 c-1 -17 16 -25 25 -12 4 7 3 9 -4 5 -5 -3 -13 0 -15 6
-4 9 -6 10 -6 1z"/>
<path d="M4108 14283 c7 -3 16 -2 19 1 4 3 -2 6 -13 5 -11 0 -14 -3 -6 -6z"/>
<path d="M5589 14278 c-1 -7 -1 -16 0 -20 1 -11 -6 -10 -32 3 -21 10 -21 10
-2 -6 10 -8 23 -14 29 -12 9 3 20 47 11 47 -3 0 -6 -6 -6 -12z"/>
<path d="M6033 14260 c0 -23 3 -28 9 -16 5 9 5 23 0 32 -6 12 -9 7 -9 -16z"/>
<path d="M4145 14261 l20 -8 -20 -6 -20 -6 20 2 c24 3 23 21 -2 24 -15 2 -14
1 2 -6z"/>
<path d="M4210 14266 c0 -2 9 -6 20 -9 11 -3 18 -1 14 4 -5 9 -34 13 -34 5z"/>
<path d="M4278 14263 c6 -2 18 -2 25 0 6 3 1 5 -13 5 -14 0 -19 -2 -12 -5z"/>
<path d="M6011 14244 c0 -11 3 -14 6 -6 3 7 2 16 -1 19 -3 4 -6 -2 -5 -13z"/>
<path d="M4088 14243 c6 -2 10 -9 6 -14 -3 -5 -1 -9 5 -9 17 0 21 18 5 24 -9
3 -19 6 -22 5 -4 0 -1 -3 6 -6z"/>
<path d="M4198 14243 c7 -3 16 -2 19 1 4 3 -2 6 -13 5 -11 0 -14 -3 -6 -6z"/>
<path d="M6011 14196 c-6 -16 -10 -34 -7 -40 2 -6 5 -3 5 6 1 9 6 18 12 20 6
2 9 13 7 23 -4 17 -6 16 -17 -9z"/>
<path d="M5664 14198 c2 -8 14 -12 28 -10 15 2 29 -2 33 -7 3 -6 11 -11 17
-11 6 0 5 6 -3 16 -8 10 -23 14 -41 12 -15 -3 -30 -1 -32 4 -2 5 -3 3 -2 -4z"/>
<path d="M6064 14173 c29 -42 25 -61 -4 -23 -11 14 -20 20 -20 14 0 -16 34
-44 53 -44 15 0 15 3 -1 32 -19 35 -37 58 -47 58 -3 0 6 -17 19 -37z"/>
<path d="M5685 14170 c-3 -5 1 -10 9 -10 8 0 20 -8 25 -17 10 -17 10 -17 11
-1 0 21 -36 43 -45 28z"/>
<path d="M5746 14133 c-6 -14 -5 -15 5 -6 7 7 10 15 7 18 -3 3 -9 -2 -12 -12z"/>
<path d="M5870 14120 c0 -5 5 -10 10 -10 6 0 10 5 10 10 0 6 -4 10 -10 10 -5
0 -10 -4 -10 -10z"/>
<path d="M5790 14113 c0 -4 11 -13 25 -20 14 -6 23 -7 19 -2 -8 13 -44 31 -44
22z"/>
<path d="M5930 14111 c8 -6 28 -11 44 -11 39 0 31 6 -19 14 -29 5 -36 4 -25
-3z"/>
<path d="M6058 14093 c7 -3 16 -2 19 1 4 3 -2 6 -13 5 -11 0 -14 -3 -6 -6z"/>
<path d="M4756 13114 c-9 -8 -16 -11 -16 -6 0 5 -12 9 -27 9 l-28 0 30 -13
c25 -10 33 -10 46 2 12 11 18 11 29 1 12 -10 12 -9 1 6 -16 21 -16 21 -35 1z"/>
<path d="M4598 13103 c7 -3 16 -2 19 1 4 3 -2 6 -13 5 -11 0 -14 -3 -6 -6z"/>
<path d="M4804 13066 c0 -13 6 -22 12 -19 8 3 10 -7 8 -27 -2 -18 2 -38 10
-46 18 -17 32 -19 19 -1 -11 13 -24 57 -17 57 2 0 11 -17 21 -37 10 -21 24
-39 31 -41 12 -2 -22 54 -69 116 l-17 22 2 -24z"/>
<path d="M3996 13041 c-4 -5 3 -7 14 -4 23 6 26 13 6 13 -8 0 -17 -4 -20 -9z"/>
<path d="M4070 13040 c-9 -6 -10 -10 -3 -10 6 0 15 5 18 10 8 12 4 12 -15 0z"/>
<path d="M4135 13043 c-11 -3 -29 -12 -40 -20 l-20 -15 20 8 c11 4 32 8 46 8
17 1 25 6 22 14 -3 6 -6 11 -7 11 0 -1 -10 -4 -21 -6z"/>
<path d="M4220 13040 c-20 -6 -21 -8 -5 -8 11 0 31 4 45 8 20 6 21 8 5 8 -11
0 -31 -4 -45 -8z"/>
<path d="M3305 13030 c-3 -6 1 -7 9 -4 18 7 21 14 7 14 -6 0 -13 -4 -16 -10z"/>
<path d="M4345 13030 c-19 -8 -19 -9 3 -9 12 -1 22 4 22 9 0 6 -1 10 -2 9 -2
0 -12 -4 -23 -9z"/>
<path d="M3738 13023 c7 -3 16 -2 19 1 4 3 -2 6 -13 5 -11 0 -14 -3 -6 -6z"/>
<path d="M3613 13013 c9 -2 23 -2 30 0 6 3 -1 5 -18 5 -16 0 -22 -2 -12 -5z"/>
<path d="M4820 12945 c7 -8 22 -14 34 -14 20 2 20 2 -1 6 -13 2 -23 9 -23 14
0 5 -5 9 -11 9 -8 0 -8 -5 1 -15z"/>
<path d="M4891 12921 c-14 -26 -14 -34 5 -57 15 -18 15 -18 5 3 -14 28 -14 29
4 47 9 8 11 17 6 21 -6 3 -15 -3 -20 -14z"/>
<path d="M4910 12883 c0 -6 8 -17 18 -24 16 -13 16 -13 2 6 -8 11 -16 22 -17
24 -2 2 -3 0 -3 -6z"/>
<path d="M4969 12825 c-4 -47 -3 -63 3 -59 4 3 8 -2 8 -10 0 -9 5 -16 10 -16
13 0 13 17 0 25 -6 4 -8 14 -6 23 3 10 1 24 -4 32 -5 8 -10 11 -11 5z"/>
<path d="M3323 12770 c0 -30 2 -43 4 -27 2 15 2 39 0 55 -2 15 -4 2 -4 -28z"/>
<path d="M5010 12763 c6 -13 15 -23 20 -23 6 0 10 -5 10 -11 0 -6 -9 -8 -21
-4 -15 5 -19 4 -14 -5 4 -6 16 -10 26 -7 19 5 45 -24 32 -37 -3 -3 -1 -6 5 -6
22 0 12 25 -29 70 -22 25 -35 35 -29 23z"/>
<path d="M3341 12745 c-1 -16 -8 -41 -16 -55 -8 -14 -14 -32 -14 -40 -1 -8 9
5 20 30 11 24 18 56 16 70 -4 23 -4 22 -6 -5z"/>
<path d="M4964 12724 c1 -26 5 -29 36 -30 19 -1 26 0 15 3 -12 2 -28 15 -37
30 l-15 26 1 -29z"/>
<path d="M5093 12640 c0 -23 3 -28 9 -16 5 9 5 23 0 32 -6 12 -9 7 -9 -16z"/>
<path d="M3332 12635 c0 -16 2 -22 5 -12 2 9 2 23 0 30 -3 6 -5 -1 -5 -18z"/>
<path d="M3320 12586 c0 -8 4 -17 9 -20 5 -4 7 3 4 14 -6 23 -13 26 -13 6z"/>
<path d="M5135 12592 c4 -7 1 -20 -6 -28 -10 -12 -10 -17 0 -27 7 -7 12 -7 11
-2 -2 6 -2 17 -1 25 1 13 2 13 11 0 5 -8 10 -10 10 -4 0 5 -7 19 -16 30 -8 10
-13 13 -9 6z"/>
<path d="M5150 12525 c0 -9 5 -15 11 -13 6 2 11 8 11 13 0 5 -5 11 -11 13 -6
2 -11 -4 -11 -13z"/>
<path d="M5180 12500 c0 -5 4 -10 9 -10 6 0 13 5 16 10 3 6 -1 10 -9 10 -9 0
-16 -4 -16 -10z"/>
<path d="M5214 12482 c-7 -5 -7 -14 2 -30 9 -19 13 -20 17 -8 4 9 2 16 -3 16
-5 0 -7 7 -4 15 7 17 4 18 -12 7z"/>
<path d="M5168 12453 c7 -3 16 -2 19 1 4 3 -2 6 -13 5 -11 0 -14 -3 -6 -6z"/>
<path d="M5250 12431 c0 -6 4 -13 10 -16 6 -3 7 1 4 9 -7 18 -14 21 -14 7z"/>
<path d="M5230 12410 c0 -5 5 -10 11 -10 5 0 7 5 4 10 -3 6 -8 10 -11 10 -2 0
-4 -4 -4 -10z"/>
<path d="M5235 12370 c-3 -6 1 -7 9 -4 18 7 21 14 7 14 -6 0 -13 -4 -16 -10z"/>
<path d="M4958 12358 c5 -5 16 -8 23 -6 8 3 3 7 -10 11 -17 4 -21 3 -13 -5z"/>
<path d="M5058 12363 c7 -3 16 -2 19 1 4 3 -2 6 -13 5 -11 0 -14 -3 -6 -6z"/>
<path d="M5180 12366 c0 -2 7 -7 16 -10 8 -3 12 -2 9 4 -6 10 -25 14 -25 6z"/>
<path d="M3391 12341 c13 -11 26 -18 28 -15 7 7 -21 34 -36 34 -10 0 -8 -6 8
-19z"/>
<path d="M5070 12350 c-34 -7 -34 -7 -5 -8 17 0 39 3 50 8 24 10 4 10 -45 0z"/>
<path d="M3370 12334 c0 -5 7 -18 15 -28 12 -16 15 -17 15 -4 0 8 -7 21 -15
28 -8 7 -15 9 -15 4z"/>
<path d="M4948 12323 c6 -2 18 -2 25 0 6 3 1 5 -13 5 -14 0 -19 -2 -12 -5z"/>
<path d="M3421 12294 c0 -11 3 -14 6 -6 3 7 2 16 -1 19 -3 4 -6 -2 -5 -13z"/>
<path d="M4283 12273 c9 -2 23 -2 30 0 6 3 -1 5 -18 5 -16 0 -22 -2 -12 -5z"/>
<path d="M3467 12264 c-11 -12 3 -24 29 -24 24 0 32 14 14 25 -5 3 -10 1 -10
-4 0 -6 -7 -11 -16 -11 -8 0 -12 5 -9 10 7 11 2 13 -8 4z"/>
<path d="M3568 12263 c6 -2 18 -2 25 0 6 3 1 5 -13 5 -14 0 -19 -2 -12 -5z"/>
<path d="M4168 12263 c7 -3 16 -2 19 1 4 3 -2 6 -13 5 -11 0 -14 -3 -6 -6z"/>
<path d="M3795 12250 c-13 -5 -14 -9 -5 -9 8 0 24 4 35 9 13 5 14 9 5 9 -8 0
-24 -4 -35 -9z"/>
<path d="M3980 12250 c-20 -6 -21 -8 -5 -8 11 0 29 3 40 8 25 11 -1 11 -35 0z"/>
<path d="M4059 12249 c-10 -6 -4 -9 19 -9 17 0 32 2 32 4 0 9 -39 13 -51 5z"/>
<path d="M4288 12253 c6 -2 18 -2 25 0 6 3 1 5 -13 5 -14 0 -19 -2 -12 -5z"/>
<path d="M3550 12240 c8 -5 24 -9 35 -9 l20 0 -20 9 c-11 5 -27 9 -35 9 -13 1
-13 0 0 -9z"/>
<path d="M4153 12243 c9 -2 25 -2 35 0 9 3 1 5 -18 5 -19 0 -27 -2 -17 -5z"/>
<path d="M6195 11726 c-151 -37 -250 -140 -318 -331 -43 -120 -60 -345 -54
-685 15 -730 106 -1045 332 -1152 141 -66 361 -15 478 112 165 178 257 530
257 985 0 132 -4 216 -10 220 -6 4 -10 -6 -10 -24 0 -43 -34 -115 -65 -139
-70 -55 -153 -51 -218 11 -67 62 -87 208 -43 302 32 70 76 105 129 104 101 -1
181 -64 197 -155 l9 -49 -4 45 c-3 42 -27 156 -54 260 -57 213 -176 396 -299
459 -95 48 -222 63 -327 37z m401 -1781 c22 -25 50 -63 62 -84 l22 -38 -51
-71 c-57 -82 -128 -133 -154 -112 -24 20 -65 172 -65 242 0 89 31 122 105 114
32 -4 48 -13 81 -51z"/>
<path d="M5863 9473 c3 -5 31 -22 62 -37 54 -28 60 -29 223 -29 136 -1 187 3
271 21 58 12 109 26 114 31 7 7 -76 10 -244 9 -140 -1 -294 2 -343 7 -55 5
-87 4 -83 -2z"/>
<path d="M3646 9392 c-10 -16 54 -40 126 -48 50 -5 79 -2 122 11 31 10 56 22
56 26 0 5 -44 9 -97 9 -54 0 -121 3 -149 6 -31 4 -54 2 -58 -4z"/>
<path d="M4018 9237 c-51 -28 -58 -36 -58 -63 0 -37 18 -94 31 -94 5 0 9 8 9
18 0 10 18 53 40 95 23 42 39 77 38 76 -2 0 -29 -15 -60 -32z"/>
<path d="M5550 8790 c-24 -34 -61 -56 -129 -75 -208 -60 -499 -76 -898 -48
-62 4 -93 2 -93 -4 0 -18 165 -43 354 -55 267 -17 497 7 661 69 113 42 170 84
163 120 -5 29 -34 26 -58 -7z"/>
<path d="M8298 9743 c7 -3 16 -2 19 1 4 3 -2 6 -13 5 -11 0 -14 -3 -6 -6z"/>
<path d="M8373 9733 c15 -2 27 -8 27 -14 0 -5 24 -9 53 -9 71 1 41 16 -43 22
-36 3 -53 3 -37 1z"/>
<path d="M8520 9710 c0 -5 5 -10 10 -10 6 0 10 5 10 10 0 6 -4 10 -10 10 -5 0
-10 -4 -10 -10z"/>
<path d="M8221 9688 c0 -14 -4 -35 -7 -45 -5 -17 -5 -17 6 0 6 10 9 30 7 45
l-4 27 -2 -27z"/>
<path d="M8595 9700 c11 -5 27 -9 35 -9 13 -1 13 0 0 9 -8 5 -24 9 -35 9 l-20
0 20 -9z"/>
<path d="M8480 9690 c0 -5 7 -10 16 -10 8 0 12 5 9 10 -3 6 -10 10 -16 10 -5
0 -9 -4 -9 -10z"/>
<path d="M8558 9683 c7 -3 16 -2 19 1 4 3 -2 6 -13 5 -11 0 -14 -3 -6 -6z"/>
<path d="M8673 9683 c9 -2 25 -2 35 0 9 3 1 5 -18 5 -19 0 -27 -2 -17 -5z"/>
<path d="M8763 9683 c9 -2 25 -2 35 0 9 3 1 5 -18 5 -19 0 -27 -2 -17 -5z"/>
<path d="M8825 9679 c-4 -6 -5 -12 -2 -15 2 -3 7 2 10 11 7 17 1 20 -8 4z"/>
<path d="M8493 9663 c9 -2 23 -2 30 0 6 3 -1 5 -18 5 -16 0 -22 -2 -12 -5z"/>
<path d="M8608 9663 c6 -2 18 -2 25 0 6 3 1 5 -13 5 -14 0 -19 -2 -12 -5z"/>
<path d="M8678 9663 c7 -3 16 -2 19 1 4 3 -2 6 -13 5 -11 0 -14 -3 -6 -6z"/>
<path d="M8780 9663 c8 -3 19 -11 23 -17 6 -7 7 -6 4 4 -2 8 -12 16 -23 17
-13 2 -15 1 -4 -4z"/>
<path d="M8801 9614 c0 -11 3 -14 6 -6 3 7 2 16 -1 19 -3 4 -6 -2 -5 -13z"/>
<path d="M8201 9604 c0 -11 3 -14 6 -6 3 7 2 16 -1 19 -3 4 -6 -2 -5 -13z"/>
<path d="M8200 9553 c0 -13 5 -23 10 -23 13 0 13 11 0 30 -8 12 -10 11 -10 -7z"/>
<path d="M8231 9554 c0 -11 3 -14 6 -6 3 7 2 16 -1 19 -3 4 -6 -2 -5 -13z"/>
<path d="M8232 9460 c0 -14 2 -19 5 -12 2 6 2 18 0 25 -3 6 -5 1 -5 -13z"/>
<path d="M8193 9400 c0 -41 2 -58 4 -37 2 20 2 54 0 75 -2 20 -4 3 -4 -38z"/>
<path d="M8213 9370 c0 -36 2 -50 4 -32 2 17 2 47 0 65 -2 17 -4 3 -4 -33z"/>
<path d="M8192 9285 c0 -16 2 -22 5 -12 2 9 2 23 0 30 -3 6 -5 -1 -5 -18z"/>
<path d="M8207 9256 c-4 -10 -5 -21 -2 -24 9 -9 17 6 13 25 -3 17 -4 17 -11
-1z"/>
<path d="M8197 9213 c-4 -3 -7 -11 -7 -17 0 -6 5 -5 12 2 6 6 9 14 7 17 -3 3
-9 2 -12 -2z"/>
<path d="M8220 9162 c0 -18 5 -32 10 -32 6 0 8 11 4 28 -10 39 -14 40 -14 4z"/>
<path d="M8191 9110 c0 -8 4 -24 9 -35 5 -13 9 -14 9 -5 0 8 -4 24 -9 35 -5
13 -9 14 -9 5z"/>
<path d="M8306 8833 c-6 -14 -5 -15 5 -6 7 7 10 15 7 18 -3 3 -9 -2 -12 -12z"/>
<path d="M9044 8823 c0 -18 3 -20 18 -12 10 6 16 14 13 19 -3 4 1 10 7 13 7 2
2 4 -12 3 -20 -1 -26 -6 -26 -23z"/>
<path d="M8276 8815 c-9 -26 -7 -32 5 -12 6 10 9 21 6 23 -2 3 -7 -2 -11 -11z"/>
<path d="M8292 8775 c0 -16 2 -22 5 -12 2 9 2 23 0 30 -3 6 -5 -1 -5 -18z"/>
<path d="M8510 8760 c-8 -5 -10 -10 -5 -10 6 0 17 5 25 10 8 5 11 10 5 10 -5
0 -17 -5 -25 -10z"/>
<path d="M8658 8763 c7 -3 16 -2 19 1 4 3 -2 6 -13 5 -11 0 -14 -3 -6 -6z"/>
<path d="M8690 8750 c0 -5 5 -10 11 -10 5 0 7 5 4 10 -3 6 -8 10 -11 10 -2 0
-4 -4 -4 -10z"/>
<path d="M8745 8746 c-26 -11 -27 -13 -11 -19 10 -4 21 -5 24 -2 3 3 -1 5 -9
6 -8 0 -3 4 9 10 13 5 29 6 34 2 7 -3 8 -1 4 5 -9 15 -13 14 -51 -2z"/>
<path d="M8443 8743 c9 -2 25 -2 35 0 9 3 1 5 -18 5 -19 0 -27 -2 -17 -5z"/>
<path d="M8620 8740 c34 -11 60 -11 35 0 -11 5 -29 8 -40 8 -16 0 -15 -2 5 -8z"/>
<path d="M8928 8743 c7 -3 16 -2 19 1 4 3 -2 6 -13 5 -11 0 -14 -3 -6 -6z"/>
<path d="M8415 8725 c20 -16 81 -12 100 7 7 7 2 8 -15 3 -14 -3 -33 -9 -42
-11 -10 -3 -28 0 -40 6 -22 11 -22 10 -3 -5z"/>
<path d="M8568 8733 c7 -3 16 -2 19 1 4 3 -2 6 -13 5 -11 0 -14 -3 -6 -6z"/>
<path d="M9460 10640 c-19 -11 -28 -19 -20 -19 8 0 26 8 40 19 31 25 25 25
-20 0z"/>
<path d="M9580 10650 c-21 -7 -21 -8 -5 -9 11 0 27 4 35 9 18 11 5 11 -30 0z"/>
<path d="M9671 10643 c-11 -12 -11 -14 0 -12 27 3 40 -1 34 -11 -3 -6 1 -7 10
-3 12 4 13 8 5 13 -7 4 -8 10 -4 12 5 3 3 3 -5 1 -8 -2 -17 0 -20 6 -3 5 -12
2 -20 -6z"/>
<path d="M9490 10625 c0 -7 30 -13 34 -7 3 4 -4 9 -15 9 -10 1 -19 0 -19 -2z"/>
<path d="M9608 10623 c7 -3 16 -2 19 1 4 3 -2 6 -13 5 -11 0 -14 -3 -6 -6z"/>
<path d="M9579 10373 c-13 -16 -12 -17 4 -4 16 13 21 21 13 21 -2 0 -10 -8
-17 -17z"/>
<path d="M9857 10276 c-4 -10 -7 -25 -6 -34 0 -11 4 -9 10 7 5 13 8 29 6 35
-2 5 -6 2 -10 -8z"/>
<path d="M9842 10195 c0 -16 2 -22 5 -12 2 9 2 23 0 30 -3 6 -5 -1 -5 -18z"/>
<path d="M9788 10043 c7 -3 16 -2 19 1 4 3 -2 6 -13 5 -11 0 -14 -3 -6 -6z"/>
<path d="M9728 10033 c6 -2 18 -2 25 0 6 3 1 5 -13 5 -14 0 -19 -2 -12 -5z"/>
<path d="M9674 10011 c-3 -3 18 -11 48 -17 29 -6 62 -15 73 -19 17 -7 18 -6 7
6 -13 15 -119 39 -128 30z"/>
<path d="M9798 10013 c7 -3 16 -2 19 1 4 3 -2 6 -13 5 -11 0 -14 -3 -6 -6z"/>
<path d="M8915 9220 c-3 -5 1 -10 10 -10 9 0 13 5 10 10 -3 6 -8 10 -10 10 -2
0 -7 -4 -10 -10z"/>
<path d="M9025 9205 c-23 -10 -26 -13 -10 -14 11 0 29 6 39 14 24 19 11 19
-29 0z"/>
<path d="M9064 9192 c3 -5 0 -13 -6 -15 -9 -4 -10 -6 -1 -6 17 -1 25 16 12 25
-7 4 -9 3 -5 -4z"/>
<path d="M9018 9173 c7 -3 16 -2 19 1 4 3 -2 6 -13 5 -11 0 -14 -3 -6 -6z"/>
<path d="M8940 9160 c-9 -6 -10 -10 -3 -10 6 0 15 5 18 10 8 12 4 12 -15 0z"/>
<path d="M9080 9161 c0 -5 5 -13 10 -16 6 -3 10 -2 10 4 0 5 -4 13 -10 16 -5
3 -10 2 -10 -4z"/>
<path d="M9040 9150 c0 -5 5 -10 10 -10 6 0 10 5 10 10 0 6 -4 10 -10 10 -5 0
-10 -4 -10 -10z"/>
<path d="M9124 9109 c-11 -18 14 -35 29 -20 10 10 8 11 -7 5 -16 -6 -18 -4
-13 9 7 19 2 23 -9 6z"/>
<path d="M8937 9087 c-3 -8 1 -14 9 -14 8 0 14 6 14 14 0 7 -4 13 -9 13 -5 0
-11 -6 -14 -13z"/>
<path d="M9058 9093 c6 -2 18 -2 25 0 6 3 1 5 -13 5 -14 0 -19 -2 -12 -5z"/>
<path d="M9190 9045 c0 -9 42 -47 47 -42 2 3 -5 15 -16 26 -21 21 -31 26 -31
16z"/>
<path d="M9180 9006 c0 -2 7 -6 15 -10 8 -3 15 -1 15 4 0 6 -7 10 -15 10 -8 0
-15 -2 -15 -4z"/>
<path d="M9030 8992 c0 -7 12 -17 26 -22 34 -13 37 -13 22 4 -7 8 -17 12 -22
9 -4 -3 -12 1 -17 8 -7 11 -9 11 -9 1z"/>
<path d="M9138 8993 c7 -3 16 -2 19 1 4 3 -2 6 -13 5 -11 0 -14 -3 -6 -6z"/>
<path d="M9110 8970 c-9 -6 -10 -10 -3 -10 6 0 15 5 18 10 8 12 4 12 -15 0z"/>
<path d="M9148 8953 c6 -2 18 -2 25 0 6 3 1 5 -13 5 -14 0 -19 -2 -12 -5z"/>
<path d="M6398 7693 c7 -3 16 -2 19 1 4 3 -2 6 -13 5 -11 0 -14 -3 -6 -6z"/>
<path d="M6338 7683 c7 -3 16 -2 19 1 4 3 -2 6 -13 5 -11 0 -14 -3 -6 -6z"/>
<path d="M6430 7679 c0 -7 -10 -9 -25 -7 -14 3 -28 1 -31 -3 -9 -15 50 -9 70
6 17 13 18 15 3 15 -9 0 -17 -5 -17 -11z"/>
<path d="M6600 7670 c0 -6 7 -10 15 -10 8 0 15 2 15 4 0 2 -7 6 -15 10 -8 3
-15 1 -15 -4z"/>
<path d="M6727 7619 c7 -7 15 -10 18 -7 3 3 -2 9 -12 12 -14 6 -15 5 -6 -5z"/>
<path d="M6048 7613 c7 -3 16 -2 19 1 4 3 -2 6 -13 5 -11 0 -14 -3 -6 -6z"/>
<path d="M6088 7613 c7 -3 16 -2 19 1 4 3 -2 6 -13 5 -11 0 -14 -3 -6 -6z"/>
<path d="M6775 7610 c3 -5 -5 -12 -19 -16 -27 -7 -57 -34 -37 -34 6 0 11 4 11
9 0 5 8 11 18 14 9 2 26 8 36 13 15 5 17 4 11 -6 -5 -9 -4 -11 4 -6 9 6 9 11
0 22 -13 16 -34 19 -24 4z"/>
<path d="M5960 7590 c20 -13 43 -13 35 0 -3 6 -16 10 -28 10 -18 0 -19 -2 -7
-10z"/>
<path d="M6073 7593 c9 -2 23 -2 30 0 6 3 -1 5 -18 5 -16 0 -22 -2 -12 -5z"/>
<path d="M5208 7573 c7 -3 16 -2 19 1 4 3 -2 6 -13 5 -11 0 -14 -3 -6 -6z"/>
<path d="M5888 7573 c7 -3 16 -2 19 1 4 3 -2 6 -13 5 -11 0 -14 -3 -6 -6z"/>
<path d="M6660 7560 c0 -6 7 -10 15 -10 8 0 15 2 15 4 0 2 -7 6 -15 10 -8 3
-15 1 -15 -4z"/>
<path d="M6795 7560 c3 -5 4 -10 1 -10 -2 0 -12 -3 -22 -7 -12 -4 -15 -3 -10
5 10 17 -19 15 -33 -1 -11 -14 -5 -27 13 -27 6 0 4 5 -4 11 -12 8 -10 10 9 5
26 -5 61 8 61 24 0 6 -5 10 -11 10 -5 0 -7 -4 -4 -10z"/>
<path d="M5063 7544 c-41 -17 -42 -22 -4 -16 16 2 32 10 35 18 3 8 4 14 3 13
-1 0 -17 -7 -34 -15z"/>
<path d="M5112 7540 c0 -14 2 -19 5 -12 2 6 2 18 0 25 -3 6 -5 1 -5 -13z"/>
<path d="M5065 7510 c-3 -5 1 -10 9 -10 8 0 18 5 21 10 3 6 -1 10 -9 10 -8 0
-18 -4 -21 -10z"/>
<path d="M6680 7505 c-9 -10 -9 -15 -1 -15 6 0 11 4 11 9 0 5 8 12 18 14 14 4
14 5 1 6 -9 0 -22 -6 -29 -14z"/>
<path d="M4918 7493 c7 -3 16 -2 19 1 4 3 -2 6 -13 5 -11 0 -14 -3 -6 -6z"/>
<path d="M6600 7485 c0 -7 39 -12 49 -5 7 4 -1 7 -18 8 -17 0 -31 -1 -31 -3z"/>
<path d="M4850 7476 c0 -2 7 -6 15 -10 8 -3 15 -1 15 4 0 6 -7 10 -15 10 -8 0
-15 -2 -15 -4z"/>
<path d="M6530 7468 c-13 -5 -31 -6 -39 -3 -10 4 -12 3 -6 -3 6 -5 21 -13 35
-17 20 -5 22 -4 10 5 -12 9 -10 10 12 6 15 -3 30 -1 33 4 4 6 12 7 18 4 7 -4
9 -3 4 1 -10 12 -40 13 -67 3z"/>
<path d="M4850 7450 c0 -5 5 -10 11 -10 5 0 7 5 4 10 -3 6 -8 10 -11 10 -2 0
-4 -4 -4 -10z"/>
<path d="M4815 7440 c3 -5 11 -10 16 -10 6 0 7 5 4 10 -3 6 -11 10 -16 10 -6
0 -7 -4 -4 -10z"/>
<path d="M4794 7432 c3 -5 0 -13 -6 -15 -9 -4 -10 -6 -1 -6 17 -1 25 16 12 25
-7 4 -9 3 -5 -4z"/>
<path d="M4884 7390 c0 -11 1 -20 3 -20 1 0 7 9 13 20 8 15 8 20 -3 20 -7 0
-13 -9 -13 -20z"/>
<path d="M6160 7393 c0 -11 3 -14 8 -7 4 6 14 14 22 17 10 4 8 6 -7 6 -16 1
-23 -5 -23 -16z"/>
<path d="M6268 7403 c7 -3 16 -2 19 1 4 3 -2 6 -13 5 -11 0 -14 -3 -6 -6z"/>
<path d="M6220 7391 c0 -5 7 -11 14 -14 10 -4 13 -1 9 9 -6 15 -23 19 -23 5z"/>
<path d="M4923 7371 c-12 -11 -23 -18 -25 -16 -2 2 -4 -5 -4 -15 0 -11 3 -16
6 -12 3 4 16 19 29 35 28 31 24 36 -6 8z"/>
<path d="M6310 7373 c-14 -7 -18 -13 -10 -13 17 0 47 17 40 23 -3 2 -16 -2
-30 -10z"/>
<path d="M6185 7370 c3 -5 10 -10 16 -10 5 0 9 5 9 10 0 6 -7 10 -16 10 -8 0
-12 -4 -9 -10z"/>
<path d="M6258 7353 c7 -3 16 -2 19 1 4 3 -2 6 -13 5 -11 0 -14 -3 -6 -6z"/>
<path d="M6176 7341 c-3 -5 -26 -12 -52 -16 -25 -3 -44 -9 -41 -11 9 -9 127
18 121 27 -7 12 -21 11 -28 0z"/>
<path d="M4595 7330 c3 -5 11 -10 16 -10 6 0 7 5 4 10 -3 6 -11 10 -16 10 -6
0 -7 -4 -4 -10z"/>
<path d="M4645 7329 c-4 -6 -17 -15 -29 -20 -20 -8 -20 -9 -1 -7 11 0 33 -4
49 -11 16 -6 31 -9 34 -6 3 3 -8 11 -25 17 -28 11 -30 13 -15 25 10 7 12 12 5
13 -6 0 -15 -5 -18 -11z"/>
<path d="M4805 7319 c-4 -6 -5 -12 -2 -15 2 -3 7 2 10 11 7 17 1 20 -8 4z"/>
<path d="M5830 7315 c10 -12 9 -15 -6 -16 -15 0 -14 -2 5 -10 13 -5 26 -7 29
-4 3 3 -1 5 -9 6 -8 0 -6 4 6 9 17 7 17 9 3 9 -10 1 -18 6 -18 11 0 6 -5 10
-11 10 -8 0 -8 -5 1 -15z"/>
<path d="M4705 7310 c3 -5 8 -10 11 -10 2 0 4 5 4 10 0 6 -5 10 -11 10 -5 0
-7 -4 -4 -10z"/>
<path d="M5920 7311 c0 -5 -8 -12 -17 -14 -11 -3 -8 -5 9 -6 20 -1 26 3 22 14
-7 17 -14 20 -14 6z"/>
<path d="M4544 7301 c3 -4 24 -13 48 -20 24 -7 53 -18 65 -24 13 -6 26 -8 29
-4 7 7 -18 18 -94 40 -28 8 -50 12 -48 8z"/>
<path d="M4834 7271 c-15 -23 -24 -44 -21 -47 3 -3 8 4 12 15 3 12 11 21 16
21 5 0 9 6 9 14 0 8 6 16 13 19 6 2 9 8 5 12 -3 4 -19 -12 -34 -34z"/>
<path d="M6017 7304 c-3 -4 -21 -10 -39 -15 -31 -8 -31 -8 -3 -4 17 2 46 8 65
13 30 9 32 10 9 11 -14 1 -28 -2 -32 -5z"/>
<path d="M4930 7276 c0 -4 7 -14 15 -22 8 -9 15 -11 15 -6 0 5 -7 15 -15 22
-8 7 -15 9 -15 6z"/>
<path d="M5785 7270 c11 -5 31 -9 45 -9 23 0 23 1 5 9 -11 5 -31 9 -45 9 -23
0 -23 -1 -5 -9z"/>
<path d="M5883 7273 c9 -2 25 -2 35 0 9 3 1 5 -18 5 -19 0 -27 -2 -17 -5z"/>
<path d="M4705 7250 c-3 -5 -1 -10 4 -10 6 0 11 5 11 10 0 6 -2 10 -4 10 -3 0
-8 -4 -11 -10z"/>
<path d="M4929 7233 c6 -12 11 -30 11 -39 0 -17 -1 -17 -13 0 -12 16 -13 16
-13 -1 0 -13 7 -19 22 -19 19 0 21 3 13 30 -5 16 -14 34 -20 40 -9 8 -9 5 0
-11z"/>
<path d="M4755 7230 c27 -12 43 -12 25 0 -8 5 -22 9 -30 9 -10 0 -8 -3 5 -9z"/>
<path d="M5368 7223 c6 -2 18 -2 25 0 6 3 1 5 -13 5 -14 0 -19 -2 -12 -5z"/>
<path d="M4735 7210 c-3 -5 -1 -10 4 -10 6 0 11 5 11 10 0 6 -2 10 -4 10 -3 0
-8 -4 -11 -10z"/>
<path d="M5251 7193 c0 -12 -5 -25 -11 -28 -5 -3 -10 -14 -10 -23 1 -11 6 -8
16 11 8 16 13 36 11 45 -3 12 -5 11 -6 -5z"/>
<path d="M4755 7190 c-3 -5 1 -10 10 -10 9 0 13 5 10 10 -3 6 -8 10 -10 10 -2
0 -7 -4 -10 -10z"/>
<path d="M4709 7178 c-9 -7 -42 -44 -75 -83 -32 -38 -49 -62 -38 -52 28 24 41
22 19 -3 -17 -18 -17 -20 -2 -14 9 3 17 9 18 13 0 3 2 15 3 26 3 28 52 79 67
69 9 -5 10 -2 6 9 -4 11 2 22 16 32 12 8 17 15 11 15 -6 0 -17 -6 -25 -12z"/>
<path d="M6405 7159 c-4 -6 -14 -8 -22 -5 -8 4 -39 -8 -69 -25 -58 -33 -74
-49 -50 -49 9 0 16 4 16 10 0 15 86 61 103 54 9 -3 24 1 32 10 9 9 12 16 6 16
-5 0 -13 -5 -16 -11z"/>
<path d="M6453 7138 c31 -11 34 -23 10 -37 -10 -6 -13 -11 -7 -11 6 0 17 7 24
15 7 8 17 12 22 9 5 -3 1 -12 -9 -21 -17 -13 -16 -13 5 -3 17 8 22 8 22 -3 0
-22 47 -50 56 -34 4 6 4 9 -1 5 -8 -7 -35 15 -35 29 0 12 -81 63 -100 62 -8 0
-3 -5 13 -11z"/>
<path d="M6377 7119 c7 -7 15 -10 18 -7 3 3 -2 9 -12 12 -14 6 -15 5 -6 -5z"/>
<path d="M4680 7110 c0 -19 52 -19 57 0 4 13 3 13 -6 0 -10 -13 -11 -13 -11 0
0 13 -1 13 -10 0 -6 -10 -10 -11 -10 -2 0 6 -4 12 -10 12 -5 0 -10 -4 -10 -10z"/>
<path d="M5210 7110 c0 -5 5 -10 10 -10 6 0 10 5 10 10 0 6 -4 10 -10 10 -5 0
-10 -4 -10 -10z"/>
<path d="M4857 7103 c-4 -3 -7 -11 -7 -17 0 -6 5 -5 12 2 6 6 9 14 7 17 -3 3
-9 2 -12 -2z"/>
<path d="M6348 7103 c7 -3 16 -2 19 1 4 3 -2 6 -13 5 -11 0 -14 -3 -6 -6z"/>
<path d="M6306 7088 c3 -4 9 -8 15 -8 5 0 9 4 9 8 0 5 -7 9 -15 9 -8 0 -12 -4
-9 -9z"/>
<path d="M6384 7092 c4 -8 0 -12 -11 -12 -10 0 -25 -5 -33 -10 -11 -8 -7 -9
15 -4 37 8 51 19 34 29 -8 5 -10 4 -5 -3z"/>
<path d="M6204 7059 c-16 -10 -24 -19 -18 -19 5 0 16 6 23 13 11 10 14 10 18
0 3 -7 14 -12 26 -12 19 1 20 2 3 6 -13 4 -15 7 -7 13 10 5 9 9 -2 13 -8 3
-27 -3 -43 -14z"/>
<path d="M4842 7042 c-11 -25 -11 -25 4 -10 9 9 15 21 13 27 -2 6 -10 -2 -17
-17z"/>
<path d="M4871 7054 c0 -11 3 -14 6 -6 3 7 2 16 -1 19 -3 4 -6 -2 -5 -13z"/>
<path d="M6368 7053 c6 -2 18 -2 25 0 6 3 1 5 -13 5 -14 0 -19 -2 -12 -5z"/>
<path d="M6481 7024 c0 -11 3 -14 6 -6 3 7 2 16 -1 19 -3 4 -6 -2 -5 -13z"/>
<path d="M6510 7030 c0 -5 4 -10 9 -10 6 0 13 5 16 10 3 6 -1 10 -9 10 -9 0
-16 -4 -16 -10z"/>
<path d="M6575 7030 c-4 -6 -11 -8 -16 -5 -5 4 -9 2 -9 -4 0 -5 5 -13 10 -16
6 -3 10 -1 10 5 0 6 4 9 8 6 5 -3 9 1 9 9 0 18 -3 19 -12 5z"/>
<path d="M6155 7019 c-4 -6 -5 -12 -2 -15 2 -3 7 2 10 11 7 17 1 20 -8 4z"/>
<path d="M5124 7004 c3 -9 6 -21 7 -27 0 -7 4 -3 8 8 9 22 5 35 -11 35 -5 0
-7 -7 -4 -16z"/>
<path d="M5156 6994 c-9 -25 -2 -26 17 -4 13 16 14 20 3 20 -8 0 -17 -7 -20
-16z"/>
<path d="M6440 6995 c-7 -9 -10 -18 -7 -21 3 -3 10 4 17 15 13 25 8 27 -10 6z"/>
<path d="M4680 6995 c0 -5 4 -16 9 -23 6 -11 10 -10 15 4 3 9 4 19 1 22 -3 3
-5 -1 -5 -9 0 -11 -2 -11 -10 1 -5 8 -10 11 -10 5z"/>
<path d="M4469 6929 c-35 -34 -53 -53 -39 -43 36 28 116 104 108 104 -3 0 -34
-28 -69 -61z"/>
<path d="M6456 6973 c-6 -14 -5 -15 5 -6 7 7 10 15 7 18 -3 3 -9 -2 -12 -12z"/>
<path d="M6627 6976 c-17 -13 -16 -14 2 -19 15 -4 18 -1 14 12 -5 13 -2 12 18
-4 l24 -20 -19 23 c-11 12 -20 22 -20 22 -1 0 -9 -7 -19 -14z"/>
<path d="M4650 6964 c0 -8 5 -12 10 -9 6 3 10 10 10 16 0 5 -4 9 -10 9 -5 0
-10 -7 -10 -16z"/>
<path d="M4525 6950 c-3 -5 -2 -10 4 -10 5 0 13 5 16 10 3 6 2 10 -4 10 -5 0
-13 -4 -16 -10z"/>
<path d="M5121 6944 c0 -11 3 -14 6 -6 3 7 2 16 -1 19 -3 4 -6 -2 -5 -13z"/>
<path d="M6469 6948 c-1 -7 -1 -16 0 -20 0 -5 -4 -8 -10 -8 -5 0 -7 -5 -4 -11
4 -6 9 -8 11 -6 7 7 15 57 9 57 -3 0 -6 -6 -6 -12z"/>
<path d="M6698 6900 c4 -42 18 -54 24 -20 2 15 7 17 18 10 13 -9 13 -11 0 -21
-12 -8 -10 -9 8 -4 13 4 22 2 22 -4 0 -6 5 -11 12 -11 7 0 -8 20 -32 45 -24
25 -47 45 -50 45 -3 0 -4 -18 -2 -40z"/>
<path d="M4650 6900 c-8 -5 -12 -12 -9 -15 4 -3 12 1 19 10 14 17 11 19 -10 5z"/>
<path d="M4449 6880 c-13 -10 -19 -19 -12 -20 11 0 43 26 43 36 0 8 -8 4 -31
-16z"/>
<path d="M6518 6889 c6 -7 12 -21 12 -30 0 -10 4 -20 8 -23 5 -3 8 9 7 27 -1
23 -7 33 -21 35 -15 3 -17 1 -6 -9z"/>
<path d="M4355 6832 c-22 -21 -62 -56 -89 -79 -26 -24 -44 -43 -40 -43 5 0 26
16 47 36 20 19 37 32 37 29 0 -4 15 9 33 27 17 18 41 38 51 44 11 6 16 13 10
16 -5 4 -27 -10 -49 -30z"/>
<path d="M5116 6853 c-6 -14 -5 -15 5 -6 7 7 10 15 7 18 -3 3 -9 -2 -12 -12z"/>
<path d="M5041 6834 c0 -11 3 -14 6 -6 3 7 2 16 -1 19 -3 4 -6 -2 -5 -13z"/>
<path d="M5070 6835 c0 -8 5 -15 10 -15 6 0 10 7 10 15 0 8 -4 15 -10 15 -5 0
-10 -7 -10 -15z"/>
<path d="M6800 6847 c0 -2 14 -16 30 -32 17 -16 30 -24 30 -19 0 6 -13 20 -30
32 -16 13 -30 21 -30 19z"/>
<path d="M4590 6831 c0 -6 5 -11 11 -11 13 0 2 -39 -17 -58 -8 -7 -14 -18 -14
-23 0 -12 17 5 48 48 24 35 28 48 12 38 -6 -4 -17 -1 -25 5 -11 9 -15 9 -15 1z"/>
<path d="M6066 6783 c-8 -49 -8 -98 0 -90 7 7 17 127 11 127 -3 0 -7 -17 -11
-37z"/>
<path d="M6545 6810 c-3 -5 -1 -10 4 -10 6 0 11 5 11 10 0 6 -2 10 -4 10 -3 0
-8 -4 -11 -10z"/>
<path d="M4570 6800 c0 -5 5 -10 11 -10 5 0 7 5 4 10 -3 6 -8 10 -11 10 -2 0
-4 -4 -4 -10z"/>
<path d="M5050 6800 c0 -5 5 -10 10 -10 6 0 10 5 10 10 0 6 -4 10 -10 10 -5 0
-10 -4 -10 -10z"/>
<path d="M5086 6783 c-11 -14 -14 -23 -8 -19 7 4 12 1 12 -9 0 -11 -7 -14 -23
-11 -21 4 -23 1 -18 -28 4 -25 6 -27 9 -8 2 12 10 22 17 22 17 0 34 30 28 48
-3 6 0 12 6 12 6 0 11 5 11 10 0 17 -14 10 -34 -17z"/>
<path d="M6805 6790 c-3 -6 1 -7 9 -4 18 7 21 14 7 14 -6 0 -13 -4 -16 -10z"/>
<path d="M4375 6780 c-3 -5 -2 -10 4 -10 5 0 13 5 16 10 3 6 2 10 -4 10 -5 0
-13 -4 -16 -10z"/>
<path d="M6885 6770 c-3 -6 2 -10 12 -11 10 0 13 -3 6 -6 -7 -2 -13 -9 -13
-15 0 -6 7 -8 14 -5 8 3 29 -1 45 -9 32 -16 43 -31 16 -20 -19 7 -19 2 -1 -13
10 -9 15 -8 19 3 7 18 -89 91 -98 76z"/>
<path d="M6578 6763 c7 -3 16 -2 19 1 4 3 -2 6 -13 5 -11 0 -14 -3 -6 -6z"/>
<path d="M6615 6760 c-3 -5 -1 -10 4 -10 6 0 11 5 11 10 0 6 -2 10 -4 10 -3 0
-8 -4 -11 -10z"/>
<path d="M4283 6735 c-15 -13 -23 -25 -17 -25 6 0 21 11 34 25 30 32 19 32
-17 0z"/>
<path d="M4740 6720 c-8 -5 -11 -12 -7 -16 4 -4 13 -2 19 4 15 15 7 24 -12 12z"/>
<path d="M5071 6709 c0 -9 -8 -29 -15 -45 -8 -15 -12 -32 -9 -38 8 -13 35 64
29 84 -3 12 -4 12 -5 -1z"/>
<path d="M6905 6710 c-3 -5 -2 -10 4 -10 5 0 13 5 16 10 3 6 2 10 -4 10 -5 0
-13 -4 -16 -10z"/>
<path d="M4230 6690 c-12 -7 -12 -12 -2 -22 9 -9 12 -9 12 4 0 9 10 19 23 21
19 4 19 4 2 5 -11 1 -27 -3 -35 -8z"/>
<path d="M6646 6681 c8 -8 43 -8 38 0 -2 4 -13 7 -24 6 -10 -1 -17 -3 -14 -6z"/>
<path d="M4174 6655 c-8 -19 2 -45 16 -45 5 0 10 14 10 30 0 31 -16 41 -26 15z"/>
<path d="M4101 6636 c-9 -11 -8 -15 5 -20 9 -4 19 -4 22 -1 3 3 -1 5 -8 5 -11
0 -11 3 -2 12 9 9 15 8 28 -8 15 -18 15 -18 4 4 -12 25 -32 29 -49 8z"/>
<path d="M4513 6635 c-8 -23 0 -24 20 -3 14 15 15 18 2 18 -9 0 -18 -7 -22
-15z"/>
<path d="M6706 6621 c-3 -5 1 -14 8 -20 10 -9 16 -9 21 -1 4 6 1 9 -7 8 -7 -2
-12 3 -10 10 2 14 -4 16 -12 3z"/>
<path d="M4405 6600 c-3 -5 -1 -10 4 -10 6 0 11 5 11 10 0 6 -2 10 -4 10 -3 0
-8 -4 -11 -10z"/>
<path d="M4453 6595 c-18 -8 -33 -19 -33 -25 0 -6 -4 -8 -10 -5 -13 8 -13 -5
0 -25 8 -13 10 -13 10 1 0 23 36 53 55 45 11 -4 14 -2 9 6 -5 8 -2 9 10 5 10
-4 15 -3 11 3 -8 13 -13 12 -52 -5z"/>
<path d="M4700 6606 c0 -2 8 -10 18 -17 15 -13 16 -12 3 4 -13 16 -21 21 -21
13z"/>
<path d="M4786 6595 c-11 -8 -15 -15 -9 -15 6 0 16 7 23 15 16 19 11 19 -14 0z"/>
<path d="M6073 6570 c0 -25 2 -35 4 -22 2 12 2 32 0 45 -2 12 -4 2 -4 -23z"/>
<path d="M6755 6600 c-2 -3 5 -6 15 -7 11 -1 22 2 24 5 3 4 -4 8 -15 8 -11 0
-22 -3 -24 -6z"/>
<path d="M5041 6584 c0 -11 3 -14 6 -6 3 7 2 16 -1 19 -3 4 -6 -2 -5 -13z"/>
<path d="M4017 6583 c-9 -8 22 -43 37 -43 6 0 3 7 -8 15 -10 7 -15 18 -11 24
7 12 -8 15 -18 4z"/>
<path d="M6179 6573 c-13 -15 -12 -15 9 -4 23 12 28 21 13 21 -5 0 -15 -7 -22
-17z"/>
<path d="M4828 6573 c7 -3 16 -2 19 1 4 3 -2 6 -13 5 -11 0 -14 -3 -6 -6z"/>
<path d="M4778 6563 c7 -3 16 -2 19 1 4 3 -2 6 -13 5 -11 0 -14 -3 -6 -6z"/>
<path d="M3980 6556 c0 -2 7 -6 15 -10 8 -3 15 -1 15 4 0 6 -7 10 -15 10 -8 0
-15 -2 -15 -4z"/>
<path d="M3955 6540 c-3 -5 -1 -10 4 -10 6 0 11 -7 11 -15 0 -16 -34 -38 -44
-28 -3 3 -6 1 -6 -5 0 -18 35 -14 53 6 21 23 21 29 3 48 -9 9 -17 10 -21 4z"/>
<path d="M6780 6534 c0 -3 17 -21 37 -40 29 -28 39 -32 49 -22 9 10 7 18 -14
38 l-25 25 17 -28 c23 -37 14 -46 -12 -13 -11 15 -25 26 -32 26 -6 0 -8 5 -5
10 3 6 1 10 -4 10 -6 0 -11 -3 -11 -6z"/>
<path d="M4998 6523 c7 -3 16 -2 19 1 4 3 -2 6 -13 5 -11 0 -14 -3 -6 -6z"/>
<path d="M3904 6498 c-42 -32 -52 -42 -27 -29 12 6 25 16 28 21 3 6 15 10 26
10 10 0 19 5 19 10 0 16 -15 12 -46 -12z"/>
<path d="M4337 6509 c7 -7 15 -10 18 -7 3 3 -2 9 -12 12 -14 6 -15 5 -6 -5z"/>
<path d="M3943 6453 c9 -2 23 -2 30 0 6 3 -1 5 -18 5 -16 0 -22 -2 -12 -5z"/>
<path d="M4290 6446 c0 -2 7 -7 16 -10 8 -3 12 -2 9 4 -6 10 -25 14 -25 6z"/>
<path d="M4260 6436 c0 -2 7 -7 16 -10 8 -3 12 -2 9 4 -6 10 -25 14 -25 6z"/>
<path d="M6906 6424 c-5 -14 -4 -15 9 -4 17 14 19 20 6 20 -5 0 -12 -7 -15
-16z"/>
<path d="M6945 6410 c3 -23 0 -30 -13 -30 -12 0 -10 -4 8 -13 14 -8 27 -12 30
-9 3 3 0 7 -6 9 -6 2 -10 19 -8 38 1 19 -1 35 -6 35 -5 0 -7 -13 -5 -30z"/>
<path d="M4080 6310 c0 -5 5 -10 10 -10 6 0 10 5 10 10 0 6 -4 10 -10 10 -5 0
-10 -4 -10 -10z"/>
<path d="M3733 6285 c-3 -9 -3 -18 -1 -21 3 -3 8 4 11 16 6 23 -1 27 -10 5z"/>
<path d="M4087 6276 c4 -5 -1 -7 -10 -3 -20 8 -47 -1 -47 -15 0 -6 7 -5 15 2
9 7 19 10 22 6 4 -4 1 -11 -7 -16 -8 -6 -10 -10 -5 -9 6 0 22 10 37 22 24 20
25 23 9 23 -11 0 -17 -5 -14 -10z"/>
<path d="M3740 6236 c0 -8 4 -17 9 -20 5 -4 7 3 4 14 -6 23 -13 26 -13 6z"/>
<path d="M4009 6248 c-1 -2 -3 -13 -4 -25 -2 -19 1 -21 16 -12 11 5 19 15 18
22 0 9 -2 9 -6 0 -2 -7 -9 -13 -15 -13 -6 0 -8 7 -4 15 4 12 0 23 -5 13z"/>
<path d="M3923 6178 c-2 -16 1 -17 13 -8 17 15 17 17 1 23 -8 3 -14 -3 -14
-15z"/>
<path d="M3949 6163 c-13 -16 -12 -17 4 -4 9 7 17 15 17 17 0 8 -8 3 -21 -13z"/>
<path d="M3701 6168 c-2 -13 22 -58 30 -58 10 0 23 40 15 47 -3 4 -6 -1 -6
-10 0 -24 -15 -21 -28 6 -6 12 -11 19 -11 15z"/>
<path d="M3761 6074 c0 -11 3 -14 6 -6 3 7 2 16 -1 19 -3 4 -6 -2 -5 -13z"/>
<path d="M3723 6045 c-6 -15 -7 -25 -1 -25 5 0 6 -5 2 -12 -4 -7 -3 -8 4 -4 6
4 9 13 6 20 -3 8 -1 17 5 21 13 7 15 25 4 25 -5 0 -13 -11 -20 -25z"/>
<path d="M3685 6040 c-3 -5 -1 -10 4 -10 6 0 11 5 11 10 0 6 -2 10 -4 10 -3 0
-8 -4 -11 -10z"/>
<path d="M4460 5781 c0 -6 4 -13 10 -16 6 -3 7 1 4 9 -7 18 -14 21 -14 7z"/>
<path d="M4497 5784 c-3 -5 1 -15 9 -22 16 -14 18 -5 5 17 -5 7 -11 9 -14 5z"/>
<path d="M4420 5759 c-7 -11 -9 -23 -6 -27 3 -3 6 0 6 6 0 6 7 18 16 26 8 9
11 16 5 16 -6 0 -15 -9 -21 -21z"/>
<path d="M4451 5744 c0 -11 3 -14 6 -6 3 7 2 16 -1 19 -3 4 -6 -2 -5 -13z"/>
<path d="M4488 5723 c5 -21 7 -23 10 -9 2 10 0 22 -6 28 -6 6 -7 0 -4 -19z"/>
<path d="M4374 5652 c4 -7 2 -19 -4 -27 -13 -16 -4 -59 11 -50 5 4 9 11 9 16
0 6 -4 7 -10 4 -14 -9 -12 19 2 33 9 9 9 15 -1 25 -11 10 -12 9 -7 -1z"/>
<path d="M4570 5611 c13 -26 13 -34 -2 -25 -7 4 -9 3 -5 -1 4 -5 14 -10 22
-11 13 -2 12 2 0 27 -9 16 -18 29 -21 29 -2 0 0 -9 6 -19z"/>
<path d="M4643 5505 c-3 -9 -3 -18 -1 -21 3 -3 8 4 11 16 6 23 -1 27 -10 5z"/>
<path d="M4674 5476 c8 -14 11 -26 6 -28 -5 -2 -2 -12 7 -23 15 -19 15 -19 8
4 -6 18 -4 22 6 16 8 -5 6 1 -3 12 -10 11 -18 25 -18 31 0 7 -5 12 -11 12 -7
0 -5 -9 5 -24z"/>
<path d="M4295 5449 c-4 -6 -5 -12 -2 -15 2 -3 7 2 10 11 7 17 1 20 -8 4z"/>
<path d="M4650 5431 c0 -10 19 -25 25 -20 1 2 -3 10 -11 17 -8 7 -14 8 -14 3z"/>
<path d="M4276 5413 c6 -4 14 -15 17 -23 5 -11 6 -9 4 4 -1 11 -9 21 -17 23
-10 3 -11 2 -4 -4z"/>
<path d="M4731 5368 c-7 -11 -10 -23 -7 -26 9 -8 66 -10 60 -1 -2 4 -15 6 -29
4 -28 -3 -33 10 -9 23 9 5 12 12 7 15 -5 3 -15 -3 -22 -15z"/>
<path d="M4270 5346 c0 -9 5 -16 10 -16 6 0 10 4 10 9 0 6 -4 13 -10 16 -5 3
-10 -1 -10 -9z"/>
<path d="M4222 5190 c0 -14 2 -19 5 -12 2 6 2 18 0 25 -3 6 -5 1 -5 -13z"/>
<path d="M4915 5200 c-3 -6 2 -10 12 -11 16 0 16 -1 -2 -9 -19 -8 -19 -9 2 -9
29 -1 36 12 13 27 -12 7 -21 8 -25 2z"/>
<path d="M5003 5150 c2 -8 12 -16 23 -17 13 -2 15 -1 4 4 -8 3 -19 11 -23 17
-6 7 -7 6 -4 -4z"/>
<path d="M4202 5130 c-17 -27 -15 -35 4 -16 8 9 14 21 12 26 -2 6 -9 1 -16
-10z"/>
<path d="M4710 5124 c0 -7 52 -25 57 -20 2 2 -10 8 -26 14 -17 6 -31 9 -31 6z"/>
<path d="M4777 5119 c7 -7 15 -10 18 -7 3 3 -2 9 -12 12 -14 6 -15 5 -6 -5z"/>
<path d="M4646 5111 c-4 -5 3 -7 14 -4 23 6 26 13 6 13 -8 0 -17 -4 -20 -9z"/>
<path d="M5010 5100 c0 -5 5 -10 10 -10 6 0 10 5 10 10 0 6 -4 10 -10 10 -5 0
-10 -4 -10 -10z"/>
<path d="M5047 5099 c7 -7 15 -10 18 -7 3 3 -2 9 -12 12 -14 6 -15 5 -6 -5z"/>
<path d="M4609 5077 c7 -7 14 -8 21 -1 6 6 2 10 -12 11 -16 2 -18 -1 -9 -10z"/>
<path d="M4780 5086 c0 -2 8 -10 18 -17 15 -13 16 -12 3 4 -13 16 -21 21 -21
13z"/>
<path d="M4566 5058 c3 -5 10 -6 15 -3 13 9 11 12 -6 12 -8 0 -12 -4 -9 -9z"/>
<path d="M4825 5039 c7 -11 35 -12 35 -1 0 4 -9 8 -20 9 -11 1 -18 -2 -15 -8z"/>
<path d="M4866 5012 c-3 -5 1 -9 9 -9 8 0 12 4 9 9 -3 4 -7 8 -9 8 -2 0 -6 -4
-9 -8z"/>
<path d="M4500 5001 c0 -5 5 -13 10 -16 6 -3 10 -2 10 4 0 5 -4 13 -10 16 -5
3 -10 2 -10 -4z"/>
<path d="M4208 4993 c6 -2 18 -2 25 0 6 3 1 5 -13 5 -14 0 -19 -2 -12 -5z"/>
<path d="M4890 4986 c0 -4 12 -24 27 -44 35 -48 48 -62 35 -37 -15 29 -62 90
-62 81z"/>
<path d="M4525 4970 c-3 -5 -1 -10 4 -10 6 0 11 5 11 10 0 6 -2 10 -4 10 -3 0
-8 -4 -11 -10z"/>
<path d="M4491 4944 c0 -11 3 -14 6 -6 3 7 2 16 -1 19 -3 4 -6 -2 -5 -13z"/>
<path d="M4347 4906 c-3 -8 4 -22 16 -33 18 -15 20 -15 8 -1 -7 10 -11 25 -7
33 3 8 1 15 -3 15 -5 0 -11 -6 -14 -14z"/>
<path d="M4380 4895 c0 -8 4 -15 10 -15 5 0 7 7 4 15 -4 8 -8 15 -10 15 -2 0
-4 -7 -4 -15z"/>
<path d="M5061 4835 c1 -19 18 -51 18 -35 0 8 -4 22 -9 30 -5 8 -9 11 -9 5z"/>
<path d="M5091 4814 c0 -11 3 -14 6 -6 3 7 2 16 -1 19 -3 4 -6 -2 -5 -13z"/>
<path d="M5061 4734 c0 -11 3 -14 6 -6 3 7 2 16 -1 19 -3 4 -6 -2 -5 -13z"/>
<path d="M4993 4655 c0 -27 2 -38 4 -22 2 15 2 37 0 50 -2 12 -4 0 -4 -28z"/>
<path d="M5012 4510 c0 -14 2 -19 5 -12 2 6 2 18 0 25 -3 6 -5 1 -5 -13z"/>
<path d="M5041 4514 c0 -11 3 -14 6 -6 3 7 2 16 -1 19 -3 4 -6 -2 -5 -13z"/>
<path d="M5015 4350 c3 -5 8 -10 11 -10 2 0 4 5 4 10 0 6 -5 10 -11 10 -5 0
-7 -4 -4 -10z"/>
<path d="M4990 4346 c0 -2 8 -10 18 -17 15 -13 16 -12 3 4 -13 16 -21 21 -21
13z"/>
<path d="M6303 5686 c-6 -20 -7 -34 -2 -30 5 3 9 13 9 22 0 12 3 13 12 4 7 -7
17 -12 23 -12 5 0 3 6 -6 13 -9 7 -18 18 -20 26 -3 7 -10 -3 -16 -23z"/>
<path d="M6428 5693 c7 -3 16 -2 19 1 4 3 -2 6 -13 5 -11 0 -14 -3 -6 -6z"/>
<path d="M6408 5673 c7 -3 16 -2 19 1 4 3 -2 6 -13 5 -11 0 -14 -3 -6 -6z"/>
<path d="M6440 5660 c-18 -12 -2 -12 25 0 13 6 15 9 5 9 -8 0 -22 -4 -30 -9z"/>
<path d="M6376 5635 c4 -8 1 -15 -6 -15 -7 0 -10 -7 -6 -16 4 -9 2 -22 -3 -28
-7 -8 -5 -12 8 -12 13 0 16 7 13 28 -3 16 0 28 7 28 6 0 8 7 5 15 -4 8 -10 15
-15 15 -4 0 -6 -7 -3 -15z"/>
<path d="M6487 5587 c-3 -8 1 -14 8 -14 7 0 11 6 8 14 -3 7 -6 13 -8 13 -2 0
-5 -6 -8 -13z"/>
<path d="M6370 5541 c0 -6 4 -13 10 -16 6 -3 7 1 4 9 -7 18 -14 21 -14 7z"/>
<path d="M6580 5511 c0 -7 -5 -9 -12 -5 -7 5 -8 3 -3 -5 5 -9 10 -10 18 -2 6
6 8 14 4 18 -4 3 -7 1 -7 -6z"/>
<path d="M6415 5481 c-3 -5 -2 -12 3 -15 5 -3 9 1 9 9 0 17 -3 19 -12 6z"/>
<path d="M6450 5480 c-11 -7 -12 -12 -4 -20 8 -8 13 -6 17 9 3 12 4 21 4 21
-1 0 -9 -5 -17 -10z"/>
<path d="M6441 5433 c7 -10 15 -20 16 -22 2 -2 3 3 3 11 0 9 -7 19 -16 22 -15
6 -15 4 -3 -11z"/>
<path d="M5624 5414 c-1 -13 2 -21 7 -18 11 6 12 31 2 37 -5 3 -9 -6 -9 -19z"/>
<path d="M6670 5384 c0 -8 5 -12 10 -9 6 4 8 11 5 16 -9 14 -15 11 -15 -7z"/>
<path d="M5646 5360 c4 -30 3 -32 -5 -12 -6 12 -15 22 -20 22 -12 0 14 -54 34
-70 9 -7 19 -10 22 -6 4 4 1 11 -6 15 -7 5 -11 13 -8 17 3 5 -1 23 -8 39 l-14
30 5 -35z"/>
<path d="M6505 5360 c3 -5 8 -10 11 -10 2 0 4 5 4 10 0 6 -5 10 -11 10 -5 0
-7 -4 -4 -10z"/>
<path d="M6690 5344 c0 -10 4 -12 13 -7 6 4 15 8 19 8 19 0 13 11 -7 13 -17 1
-25 -3 -25 -14z"/>
<path d="M6547 5319 c12 -12 24 -21 27 -18 2 2 -8 13 -22 23 l-27 19 22 -24z"/>
<path d="M6744 5334 c3 -7 0 -17 -8 -23 -14 -12 -11 -47 5 -57 5 -3 5 6 0 20
-7 18 -6 26 4 30 8 3 14 -2 14 -12 1 -38 5 -51 13 -46 4 3 3 14 -2 25 -7 11
-7 19 -1 19 5 0 12 -6 14 -12 3 -7 6 -8 6 -3 0 6 -11 24 -25 40 -15 17 -24 25
-20 19z"/>
<path d="M5600 5312 c0 -4 9 -18 20 -32 13 -17 20 -20 20 -10 0 9 -9 23 -20
33 -11 9 -20 13 -20 9z"/>
<path d="M6620 5300 c0 -5 5 -10 11 -10 5 0 7 5 4 10 -3 6 -8 10 -11 10 -2 0
-4 -4 -4 -10z"/>
<path d="M6619 5269 c18 -11 41 -18 50 -16 12 4 11 5 -4 6 -11 1 -29 8 -39 16
-11 8 -25 15 -30 15 -6 0 4 -9 23 -21z"/>
<path d="M5691 5244 c0 -11 3 -14 6 -6 3 7 2 16 -1 19 -3 4 -6 -2 -5 -13z"/>
<path d="M6730 5229 c0 -6 -9 -8 -22 -4 -13 3 -7 -3 13 -13 51 -26 71 -33 64
-22 -3 6 -13 10 -21 10 -8 0 -14 9 -14 20 0 11 -4 20 -10 20 -5 0 -10 -5 -10
-11z"/>
<path d="M6775 5220 c-3 -5 -1 -10 4 -10 6 0 11 5 11 10 0 6 -2 10 -4 10 -3 0
-8 -4 -11 -10z"/>
<path d="M5696 5201 c-10 -11 -16 -26 -13 -33 4 -10 6 -10 6 0 2 21 20 13 35
-15 8 -16 15 -23 16 -18 0 6 -7 20 -15 32 -8 12 -12 28 -9 37 8 21 1 20 -20
-3z"/>
<path d="M6829 5201 c7 -5 11 -14 7 -20 -5 -7 -1 -8 10 -4 13 5 15 3 9 -7 -6
-9 -4 -11 4 -6 9 6 8 13 -5 27 -9 10 -22 19 -28 19 -6 0 -5 -4 3 -9z"/>
<path d="M6860 5140 c-9 -6 -10 -10 -3 -10 6 0 15 5 18 10 8 12 4 12 -15 0z"/>
<path d="M6900 5116 c0 -2 7 -9 15 -16 13 -11 14 -10 9 4 -5 14 -24 23 -24 12z"/>
<path d="M5761 5054 c0 -11 3 -14 6 -6 3 7 2 16 -1 19 -3 4 -6 -2 -5 -13z"/>
<path d="M5770 5005 c0 -8 2 -15 4 -15 2 0 6 7 10 15 3 8 1 15 -4 15 -6 0 -10
-7 -10 -15z"/>
<path d="M5846 4890 c7 -28 12 -35 18 -29 2 2 -2 15 -10 29 l-15 25 7 -25z"/>
<path d="M5750 4841 c0 -7 -4 -9 -10 -6 -5 3 -10 -1 -10 -9 0 -19 -17 -21 -23
-3 -2 7 -3 6 -3 -3 2 -23 30 -23 44 1 7 11 11 24 8 27 -3 3 -6 0 -6 -7z"/>
<path d="M5867 4833 c-4 -3 -7 -16 -6 -27 0 -19 1 -19 10 3 10 24 8 36 -4 24z"/>
<path d="M5880 4805 c0 -15 18 -40 24 -34 3 3 -1 14 -9 25 -8 10 -14 15 -15 9z"/>
<path d="M5725 4771 c-6 -11 9 -23 19 -14 9 9 7 23 -3 23 -6 0 -12 -4 -16 -9z"/>
<path d="M5920 4728 c0 -9 7 -22 17 -29 15 -13 15 -12 3 11 -17 34 -20 36 -20
18z"/>
<path d="M5798 4668 c7 -7 12 -21 12 -32 0 -10 3 -17 6 -13 10 10 -5 57 -18
57 -9 0 -9 -3 0 -12z"/>
<path d="M5785 4630 c9 -16 17 -30 19 -30 3 0 -1 14 -7 30 -6 17 -15 30 -19
30 -5 0 -2 -13 7 -30z"/>
<path d="M5824 4609 c-3 -6 -2 -15 3 -20 5 -5 9 -1 9 11 0 23 -2 24 -12 9z"/>
<path d="M5980 4565 c0 -8 4 -15 9 -15 5 0 11 7 15 15 3 9 0 15 -9 15 -8 0
-15 -7 -15 -15z"/>
<path d="M5838 4528 c5 -5 16 -8 23 -6 8 3 3 7 -10 11 -17 4 -21 3 -13 -5z"/>
<path d="M6016 4515 c-9 -26 -7 -32 5 -12 6 10 9 21 6 23 -2 3 -7 -2 -11 -11z"/>
<path d="M5910 4510 c-1 -3 -4 -22 -5 -44 -2 -28 0 -34 7 -22 5 9 7 29 5 44
-2 15 -5 25 -7 22z"/>
<path d="M6036 4483 c-6 -14 -5 -15 5 -6 7 7 10 15 7 18 -3 3 -9 -2 -12 -12z"/>
<path d="M5885 4420 c9 -16 18 -30 21 -30 2 0 -2 14 -11 30 -9 17 -18 30 -21
30 -2 0 2 -13 11 -30z"/>
<path d="M6095 4369 c-4 -11 -4 -23 -1 -26 3 -4 6 1 6 10 0 8 5 17 12 19 9 3
9 6 1 11 -7 4 -14 -1 -18 -14z"/>
<path d="M6121 4355 c0 -5 6 -21 14 -35 8 -14 14 -20 14 -15 0 6 -6 21 -14 35
-8 14 -14 21 -14 15z"/>
<path d="M6160 4274 c0 -17 17 -36 24 -26 3 5 -1 15 -9 22 -8 7 -15 9 -15 4z"/>
<path d="M5987 4253 c-4 -3 -7 -13 -7 -22 1 -13 3 -13 11 2 11 19 8 33 -4 20z"/>
<path d="M6190 4239 c0 -13 32 -70 37 -65 3 3 -4 20 -16 38 -11 18 -21 30 -21
27z"/>
<path d="M5991 4164 c0 -11 3 -14 6 -6 3 7 2 16 -1 19 -3 4 -6 -2 -5 -13z"/>
<path d="M6195 4160 c10 -11 20 -20 22 -20 2 0 -2 9 -9 20 -7 11 -17 20 -22
20 -5 0 -1 -9 9 -20z"/>
<path d="M6170 4140 c0 -5 5 -10 11 -10 5 0 7 5 4 10 -3 6 -8 10 -11 10 -2 0
-4 -4 -4 -10z"/>
<path d="M6245 4131 c-7 -12 2 -31 15 -31 9 0 8 26 -2 35 -3 4 -9 2 -13 -4z"/>
<path d="M6071 4094 c0 -11 3 -14 6 -6 3 7 2 16 -1 19 -3 4 -6 -2 -5 -13z"/>
<path d="M6057 4020 c-3 -12 0 -20 7 -20 6 0 12 9 12 20 0 11 -3 20 -7 20 -4
0 -9 -9 -12 -20z"/>
<path d="M6211 3954 c0 -11 3 -14 6 -6 3 7 2 16 -1 19 -3 4 -6 -2 -5 -13z"/>
<path d="M6151 3764 c0 -11 3 -14 6 -6 3 7 2 16 -1 19 -3 4 -6 -2 -5 -13z"/>
</g>
</svg>
