<svg xmlns="http://www.w3.org/2000/svg" version="1.1" xmlns:xlink="http://www.w3.org/1999/xlink" xmlns:svgjs="http://svgjs.com/svgjs" width="1440" height="560" preserveAspectRatio="none" viewBox="0 0 1440 560"><g mask="url(&quot;#SvgjsMask1011&quot;)" fill="none"><rect width="1440" height="560" x="0" y="0" fill="#0e2a47"></rect><path d="M1254 30L1253 229" stroke-width="8" stroke="url(#SvgjsLinearGradient1012)" stroke-linecap="round" class="Up"></path><path d="M887 390L886 104" stroke-width="8" stroke="url(#SvgjsLinearGradient1013)" stroke-linecap="round" class="Down"></path><path d="M153 407L152 14" stroke-width="10" stroke="url(#SvgjsLinearGradient1013)" stroke-linecap="round" class="Down"></path><path d="M341 353L340 562" stroke-width="8" stroke="url(#SvgjsLinearGradient1012)" stroke-linecap="round" class="Up"></path><path d="M718 456L717 97" stroke-width="10" stroke="url(#SvgjsLinearGradient1013)" stroke-linecap="round" class="Down"></path><path d="M454 104L453 339" stroke-width="10" stroke="url(#SvgjsLinearGradient1013)" stroke-linecap="round" class="Down"></path><path d="M1281 306L1280 489" stroke-width="6" stroke="url(#SvgjsLinearGradient1012)" stroke-linecap="round" class="Up"></path><path d="M1095 89L1094 468" stroke-width="6" stroke="url(#SvgjsLinearGradient1012)" stroke-linecap="round" class="Up"></path><path d="M1408 245L1407 -10" stroke-width="6" stroke="url(#SvgjsLinearGradient1012)" stroke-linecap="round" class="Up"></path><path d="M730 213L729 545" stroke-width="10" stroke="url(#SvgjsLinearGradient1013)" stroke-linecap="round" class="Down"></path><path d="M766 77L765 493" stroke-width="8" stroke="url(#SvgjsLinearGradient1012)" stroke-linecap="round" class="Up"></path><path d="M339 372L338 60" stroke-width="6" stroke="url(#SvgjsLinearGradient1013)" stroke-linecap="round" class="Down"></path><path d="M529 352L528 55" stroke-width="8" stroke="url(#SvgjsLinearGradient1012)" stroke-linecap="round" class="Up"></path><path d="M1366 289L1365 -53" stroke-width="6" stroke="url(#SvgjsLinearGradient1012)" stroke-linecap="round" class="Up"></path><path d="M1280 441L1279 70" stroke-width="6" stroke="url(#SvgjsLinearGradient1012)" stroke-linecap="round" class="Up"></path><path d="M1438 363L1437 41" stroke-width="10" stroke="url(#SvgjsLinearGradient1013)" stroke-linecap="round" class="Down"></path><path d="M861 456L860 45" stroke-width="10" stroke="url(#SvgjsLinearGradient1013)" stroke-linecap="round" class="Down"></path><path d="M920 142L919 382" stroke-width="8" stroke="url(#SvgjsLinearGradient1012)" stroke-linecap="round" class="Up"></path><path d="M303 343L302 41" stroke-width="10" stroke="url(#SvgjsLinearGradient1012)" stroke-linecap="round" class="Up"></path><path d="M957 209L956 431" stroke-width="8" stroke="url(#SvgjsLinearGradient1012)" stroke-linecap="round" class="Up"></path><path d="M1286 229L1285 466" stroke-width="8" stroke="url(#SvgjsLinearGradient1012)" stroke-linecap="round" class="Up"></path><path d="M1079 352L1078 175" stroke-width="10" stroke="url(#SvgjsLinearGradient1013)" stroke-linecap="round" class="Down"></path><path d="M1397 278L1396 45" stroke-width="8" stroke="url(#SvgjsLinearGradient1013)" stroke-linecap="round" class="Down"></path><path d="M44 128L43 -48" stroke-width="6" stroke="url(#SvgjsLinearGradient1013)" stroke-linecap="round" class="Down"></path><path d="M863 431L862 241" stroke-width="8" stroke="url(#SvgjsLinearGradient1012)" stroke-linecap="round" class="Up"></path><path d="M525 280L524 462" stroke-width="6" stroke="url(#SvgjsLinearGradient1012)" stroke-linecap="round" class="Up"></path><path d="M417 11L416 229" stroke-width="8" stroke="url(#SvgjsLinearGradient1012)" stroke-linecap="round" class="Up"></path><path d="M446 14L445 -203" stroke-width="10" stroke="url(#SvgjsLinearGradient1013)" stroke-linecap="round" class="Down"></path><path d="M528 199L527 422" stroke-width="10" stroke="url(#SvgjsLinearGradient1012)" stroke-linecap="round" class="Up"></path><path d="M343 353L342 569" stroke-width="6" stroke="url(#SvgjsLinearGradient1013)" stroke-linecap="round" class="Down"></path><path d="M379 272L378 480" stroke-width="6" stroke="url(#SvgjsLinearGradient1013)" stroke-linecap="round" class="Down"></path><path d="M335 259L334 -32" stroke-width="6" stroke="url(#SvgjsLinearGradient1012)" stroke-linecap="round" class="Up"></path><path d="M387 19L386 300" stroke-width="6" stroke="url(#SvgjsLinearGradient1012)" stroke-linecap="round" class="Up"></path><path d="M998 487L997 652" stroke-width="10" stroke="url(#SvgjsLinearGradient1013)" stroke-linecap="round" class="Down"></path><path d="M513 483L512 263" stroke-width="8" stroke="url(#SvgjsLinearGradient1013)" stroke-linecap="round" class="Down"></path><path d="M189 522L188 758" stroke-width="6" stroke="url(#SvgjsLinearGradient1012)" stroke-linecap="round" class="Up"></path></g><defs><mask id="SvgjsMask1011"><rect width="1440" height="560" fill="#ffffff"></rect></mask><linearGradient x1="0%" y1="100%" x2="0%" y2="0%" id="SvgjsLinearGradient1012"><stop stop-color="rgba(28, 83, 142, 0)" offset="0"></stop><stop stop-color="#1c538e" offset="1"></stop></linearGradient><linearGradient x1="0%" y1="0%" x2="0%" y2="100%" id="SvgjsLinearGradient1013"><stop stop-color="rgba(28, 83, 142, 0)" offset="0"></stop><stop stop-color="#1c538e" offset="1"></stop></linearGradient></defs></svg>